<svg width="25" height="25" viewBox="0 0 25 25" fill="none" xmlns="http://www.w3.org/2000/svg">
<g clip-path="url(#clip0_166_568)">
<path d="M23.4793 5.44906L23.4793 5.44908C23.8127 5.78248 24 6.23464 24 6.70615V22.2222C24 23.2041 23.2041 24 22.2222 24H2.77778C1.79593 24 1 23.2041 1 22.2222V2.77778C1 1.79594 1.79594 1 2.77778 1H18.2939C18.7653 1 19.2175 1.18728 19.5509 1.5207C19.551 1.52071 19.551 1.52072 19.551 1.52072L23.4793 5.44906Z" stroke="white" stroke-width="2"/>
<path d="M7.77767 8.33333H17.2221C17.6824 8.33333 18.0554 7.96024 18.0554 7.5V0.833333C18.0554 0.373097 17.6824 0 17.2221 0H7.77767C7.31743 0 6.94434 0.373097 6.94434 0.833333V7.5C6.94434 7.96024 7.31743 8.33333 7.77767 8.33333Z" stroke="white" stroke-width="2"/>
<path d="M4 14.8333V25.1111H20.6667V14.8333C20.6667 14.3731 20.2936 14 19.8333 14H4.83333C4.3731 14 4 14.3731 4 14.8333Z" stroke="white" stroke-width="2"/>
</g>
<defs>
<clipPath id="clip0_166_568">
<rect width="25" height="25" fill="white"/>
</clipPath>
</defs>
</svg>
