<svg width="40" height="40" viewBox="0 0 40 40" fill="none" xmlns="http://www.w3.org/2000/svg">
<rect width="40" height="40" rx="7" fill="#EDECFF"/>
<path d="M21.1938 14.6802L21.67 14.2146C21.5455 14.0825 21.3736 14.0078 21.1938 14.0078V14.6802ZM17.0492 14.6802L17.0466 15.3527H17.0492V14.6802ZM14.6606 17.0468L14.0008 17.0309C14.0006 17.0362 14.0006 17.0415 14.0006 17.0468H14.6606ZM14.6606 23.8456L15.3206 23.8602C15.3207 23.8554 15.3207 23.8505 15.3207 23.8456H14.6606ZM16.9918 26.3277L16.9772 27C16.982 27 16.9869 27.0001 16.9918 27.0001V26.3277ZM17.0492 26.3277V25.6553C17.0421 25.6553 17.035 25.6554 17.0279 25.6556L17.0492 26.3277ZM22.0261 26.3277V27.0001C22.0351 27.0001 22.044 26.9999 22.0529 26.9995L22.0261 26.3277ZM24.3493 23.8456H23.6892V23.8504L24.3493 23.8456ZM24.3493 18.0286H25.0093C25.0093 17.855 24.9434 17.6881 24.8254 17.5629L24.3493 18.0286ZM21.1938 14.0078H17.0492V15.3527H21.1938V14.0078ZM17.0517 14.0078C15.3967 14.0014 14.0398 15.3452 14.0008 17.0309L15.3205 17.0626C15.3426 16.1096 16.11 15.349 17.0466 15.3527L17.0517 14.0078ZM14.0006 17.0468V23.8456H15.3207V17.0468H14.0006ZM14.0007 23.831C13.9641 25.543 15.2963 26.9618 16.9772 27L17.0065 25.6554C16.0546 25.6339 15.2998 24.8302 15.3206 23.8602L14.0007 23.831ZM16.9918 27.0001C16.9983 27.0001 16.998 27.0001 17.0151 27.0003C17.0275 27.0004 17.0474 27.0005 17.0704 26.9998L17.0279 25.6556C17.0315 25.6555 17.0325 25.6556 17.0259 25.6555C17.0219 25.6555 17.0197 25.6555 17.013 25.6554C17.0075 25.6553 17 25.6553 16.9918 25.6553V27.0001ZM17.0492 27.0001H22.0261V25.6553H17.0492V27.0001ZM22.0529 26.9995C23.7129 26.9309 25.0212 25.5337 25.0093 23.8409L23.6892 23.8504C23.696 24.8179 22.9483 25.6166 21.9994 25.6558L22.0529 26.9995ZM25.0093 23.8456V18.0286H23.6892V23.8456H25.0093ZM24.8254 17.5629L21.67 14.2146L20.7177 15.1459L23.873 18.4942L24.8254 17.5629Z" fill="#8982FF"/>
<path d="M21.6903 14.6724C21.6903 14.3011 21.3947 14 21.0302 14C20.6656 14 20.3701 14.3011 20.3701 14.6724H21.6903ZM22.63 18.1527L22.6281 18.8252H22.63V18.1527ZM24.3463 18.8252C24.7109 18.8252 25.0064 18.5241 25.0064 18.1527C25.0064 17.7814 24.7109 17.4803 24.3463 17.4803V18.8252ZM20.3701 14.6724V16.5186H21.6903V14.6724H20.3701ZM20.3701 16.5186C20.3701 17.7904 21.3798 18.8216 22.6281 18.8252L22.6319 17.4803C22.111 17.4788 21.6903 17.049 21.6903 16.5186H20.3701ZM22.63 18.8252H24.3463V17.4803H22.63V18.8252Z" fill="#8982FF"/>
<path d="M20.9138 23.0294C21.2784 23.0294 21.5739 22.7284 21.5739 22.357C21.5739 21.9856 21.2784 21.6846 20.9138 21.6846V23.0294ZM17.5497 21.6846C17.1852 21.6846 16.8896 21.9856 16.8896 22.357C16.8896 22.7284 17.1852 23.0294 17.5497 23.0294V21.6846ZM20.9138 21.6846H17.5497V23.0294H20.9138V21.6846Z" fill="#8982FF"/>
<path d="M19.6395 20.6476C20.004 20.6476 20.2995 20.3465 20.2995 19.9751C20.2995 19.6038 20.004 19.3027 19.6395 19.3027V20.6476ZM17.5487 19.3027C17.1842 19.3027 16.8887 19.6038 16.8887 19.9751C16.8887 20.3465 17.1842 20.6476 17.5487 20.6476V19.3027ZM19.6395 19.3027H17.5487V20.6476H19.6395V19.3027Z" fill="#8982FF"/>
</svg>
