<svg width="44" height="44" viewBox="0 0 44 44" fill="none" xmlns="http://www.w3.org/2000/svg">
<rect x="7" y="7" width="30" height="30" rx="15" fill="#006600"/>
<path d="M20.4286 11C18.7 11 17.2857 12.2375 17.2857 13.75H14.1429C12.4143 13.75 11 14.9875 11 16.5H33C33 14.9875 31.5857 13.75 29.8571 13.75H26.7143C26.7143 12.2375 25.3 11 23.5714 11H20.4286ZM14.1429 19.25V32.4775C14.1429 32.78 14.3943 33 14.74 33H29.2914C29.6371 33 29.8886 32.78 29.8886 32.4775V19.25H26.7457V28.875C26.7457 29.645 26.0543 30.25 25.1743 30.25C24.2943 30.25 23.6029 29.645 23.6029 28.875V19.25H20.46V28.875C20.46 29.645 19.7686 30.25 18.8886 30.25C18.0086 30.25 17.3171 29.645 17.3171 28.875V19.25H14.1743H14.1429Z" fill="white"/>
</svg>
