<svg width="25" height="25" viewBox="0 0 25 25" fill="none" xmlns="http://www.w3.org/2000/svg">
<rect width="25" height="25" rx="12.5" fill="#8982FF"/>
<path d="M9.98133 9.87716L10.3195 10.1849L10.3199 10.1845L9.98133 9.87716ZM10.9562 8.62252L10.7864 8.20014L10.7863 8.2002L10.9562 8.62252ZM14.2109 9.04484C14.3404 9.09583 14.4603 9.22571 14.5935 9.46156C14.6602 9.57965 14.71 9.68524 14.7767 9.81403C14.8322 9.92121 14.9117 10.0703 15.0177 10.1845L15.6947 9.56982C15.6951 9.57024 15.6923 9.56719 15.6863 9.55901C15.6805 9.55094 15.6729 9.53965 15.6634 9.52428C15.644 9.49268 15.6219 9.4523 15.5946 9.39968C15.5455 9.30472 15.4726 9.15431 15.3957 9.01806C15.2416 8.74526 14.99 8.37317 14.5507 8.2002L14.2109 9.04484ZM15.0177 10.1845C15.3543 10.5474 15.8205 10.6677 16.1058 10.6677V9.75857C16.0763 9.75857 16.004 9.74987 15.9173 9.71615C15.8335 9.68354 15.755 9.63475 15.6947 9.56982L15.0177 10.1845ZM16.1058 10.6677C16.8309 10.6677 17.4186 11.2492 17.4186 11.9658H18.3375C18.3375 10.747 17.3383 9.75857 16.1058 9.75857V10.6677ZM17.4186 11.9658V15.1944H18.3375V11.9658H17.4186ZM17.4186 15.1944C17.4186 16.2414 16.5599 17.0909 15.5015 17.0909V18C17.0674 18 18.3375 16.7435 18.3375 15.1944H17.4186ZM15.5015 17.0909H9.83604V18H15.5015V17.0909ZM9.83604 17.0909C8.77713 17.0909 7.91895 16.2415 7.91895 15.1944H7C7 16.7435 8.26947 18 9.83604 18V17.0909ZM7.91895 15.1944V11.9658H7V15.1944H7.91895ZM7.91895 11.9658C7.91895 11.2492 8.50664 10.6677 9.23176 10.6677V9.75857C7.99931 9.75857 7 10.747 7 11.9658H7.91895ZM9.23176 10.6677C9.51678 10.6677 9.98254 10.5472 10.3195 10.1849L9.6432 9.56942C9.58257 9.63461 9.5037 9.6835 9.41977 9.71615C9.333 9.74993 9.26081 9.75857 9.23176 9.75857V10.6677ZM10.3199 10.1845C10.4259 10.0703 10.5054 9.92107 10.5608 9.81388C10.6275 9.68503 10.6772 9.5795 10.7439 9.4614C10.877 9.22557 10.9967 9.09579 11.1261 9.04484L10.7863 8.2002C10.3469 8.37321 10.0955 8.7454 9.9415 9.01823C9.86461 9.15446 9.79182 9.30493 9.74274 9.39984C9.71554 9.45244 9.69344 9.4928 9.67404 9.52438C9.66461 9.53973 9.65703 9.551 9.65118 9.55906C9.64525 9.56723 9.64242 9.57025 9.64282 9.56982L10.3199 10.1845ZM11.1259 9.0449C11.201 9.01537 11.3916 8.97705 11.6942 8.94912C11.9802 8.92272 12.3225 8.90909 12.6687 8.90909C13.0149 8.90909 13.3572 8.92272 13.6431 8.94912C13.9457 8.97705 14.136 9.01538 14.2109 9.04484L14.5507 8.2002C14.3411 8.11768 14.0324 8.07202 13.7285 8.04396C13.408 8.01437 13.0364 8 12.6687 8C12.301 8 11.9294 8.01437 11.6088 8.04396C11.3048 8.07202 10.996 8.11768 10.7864 8.20014L11.1259 9.0449Z" fill="white"/>
<path d="M15.4849 10.9248C15.2311 10.9248 15.0254 11.1283 15.0254 11.3794C15.0254 11.6304 15.2311 11.8339 15.4849 11.8339V10.9248ZM15.4899 11.8339C15.7437 11.8339 15.9494 11.6304 15.9494 11.3794C15.9494 11.1283 15.7437 10.9248 15.4899 10.9248V11.8339ZM15.4849 11.8339H15.4899V10.9248H15.4849V11.8339Z" fill="white"/>
<path d="M14.9185 13.6798C14.9185 12.4504 13.9114 11.4541 12.6687 11.4541V12.3632C13.4039 12.3632 13.9996 12.9525 13.9996 13.6798H14.9185ZM12.6687 11.4541C11.426 11.4541 10.4189 12.4504 10.4189 13.6798H11.3379C11.3379 12.9525 11.9336 12.3632 12.6687 12.3632V11.4541ZM10.4189 13.6798C10.4189 14.9091 11.426 15.9054 12.6687 15.9054V14.9963C11.9336 14.9963 11.3379 14.407 11.3379 13.6798H10.4189ZM12.6687 15.9054C13.9114 15.9054 14.9185 14.9091 14.9185 13.6798H13.9996C13.9996 14.407 13.4039 14.9963 12.6687 14.9963V15.9054Z" fill="white"/>
</svg>
