<svg width="20" height="20" viewBox="0 0 20 20" fill="none" xmlns="http://www.w3.org/2000/svg">
<g clip-path="url(#clip0_94_11321)">
<path d="M16.2399 10.612C15.8674 10.612 15.4993 10.6665 15.1456 10.774L10.5856 12.0363V5.58691C10.5856 5.26383 10.8485 5.00098 11.1715 5.00098C11.4946 5.00098 11.7575 5.26383 11.7575 5.58691V10.145H12.3434C14.605 10.145 16.445 8.30508 16.445 6.04348C16.445 4.21336 15.2157 2.58957 13.4533 2.09402L5.88508 0V10.0448L2.84832 10.8854C2.48973 10.9751 2.14598 11.1177 1.82648 11.3093C0.048474 12.3753 -0.530745 14.6892 0.535349 16.4672C0.957576 17.1714 1.58176 17.7068 2.34043 18.0155C2.7927 18.1995 3.27984 18.2929 3.76633 18.2928C4.0684 18.2928 4.37027 18.2568 4.66324 18.1842L5.88508 17.8461V18.8609L9.99965 20L17.3271 17.9716L17.3424 17.9672C18.0958 17.7364 18.7724 17.2608 19.2478 16.6279C19.7397 15.973 19.9997 15.1929 19.9997 14.3718C19.9997 12.2987 18.313 10.612 16.2399 10.612ZM5.88504 13.3375L2.80363 14.1905L3.11629 15.3199L5.88504 14.5534V16.6302L4.37395 17.0486C4.16637 17.0994 3.95777 17.124 3.75188 17.124C2.85895 17.1239 2.01785 16.6609 1.54039 15.8646C0.806599 14.6407 1.20527 13.048 2.4291 12.3143C2.65113 12.1811 2.88973 12.0824 3.13824 12.0208L5.88504 11.2607V13.3375ZM9.41371 5.58691V18.6218L7.05695 17.9694V1.54016L13.1385 3.22285C14.3953 3.57625 15.2731 4.73617 15.2731 6.04352C15.2731 7.45832 14.2649 8.64211 12.9294 8.91434V5.58691C12.9294 4.61766 12.1408 3.8291 11.1715 3.8291C10.2023 3.8291 9.41371 4.61766 9.41371 5.58691ZM17.0063 16.8445L10.5856 18.6218V16.545L17.1961 14.7151L16.8835 13.5857L10.5856 15.3291V13.2523L15.4655 11.9013L15.4808 11.8969C15.7256 11.8219 15.981 11.7839 16.2399 11.7839C17.6669 11.7839 18.8278 12.9448 18.8278 14.3718C18.8278 15.5145 18.096 16.5073 17.0063 16.8445Z" fill="#314CA3"/>
</g>
<defs>
<clipPath id="clip0_94_11321">
<rect width="20" height="20" fill="white"/>
</clipPath>
</defs>
</svg>
