<svg width="20" height="20" viewBox="0 0 20 20" fill="none" xmlns="http://www.w3.org/2000/svg">
<path d="M19.1595 3.29167C19.1596 3.14448 19.1207 2.99989 19.0467 2.87263C18.9728 2.74537 18.8664 2.63998 18.7385 2.5672C18.6105 2.49442 18.4656 2.45685 18.3184 2.45831C18.1712 2.45977 18.027 2.50022 17.9006 2.57553C17.4128 2.86585 16.8877 3.08818 16.3397 3.23636C15.5572 2.56489 14.5592 2.19744 13.5281 2.2012C12.3969 2.2025 11.3105 2.64336 10.4982 3.43068C9.68601 4.21801 9.21155 5.29017 9.17504 6.42076C6.94502 6.06515 4.9239 4.9012 3.49708 3.15088C3.41111 3.04658 3.30132 2.96448 3.17696 2.91151C3.05261 2.85853 2.91734 2.83624 2.78256 2.84651C2.64786 2.8576 2.51789 2.90134 2.40389 2.97393C2.28989 3.04653 2.19528 3.14581 2.12826 3.26317C1.78453 3.86302 1.58712 4.53547 1.55205 5.22593C1.51698 5.91639 1.64525 6.60538 1.92644 7.23696L1.92481 7.23859C1.79843 7.31643 1.69414 7.42539 1.6219 7.55505C1.54966 7.68471 1.51189 7.83073 1.51221 7.97916C1.51068 8.1016 1.51803 8.22399 1.53419 8.34536C1.6193 9.39392 2.08401 10.3754 2.84115 11.1058C2.78979 11.2036 2.75844 11.3107 2.74894 11.4209C2.73944 11.531 2.75197 11.6419 2.78581 11.7471C3.11591 12.7755 3.81789 13.6438 4.7544 14.182C3.80294 14.5499 2.77559 14.6782 1.76286 14.5555C1.57542 14.532 1.38555 14.5729 1.2244 14.6715C1.06325 14.77 0.940384 14.9204 0.875957 15.098C0.811531 15.2756 0.80937 15.4698 0.869829 15.6488C0.930288 15.8278 1.04978 15.9809 1.20869 16.083C2.95044 17.2048 4.97843 17.8012 7.05017 17.801C9.39955 17.8274 11.6918 17.0767 13.5704 15.6655C15.4489 14.2544 16.8085 12.262 17.4375 9.99817C17.7317 9.01204 17.8819 7.98857 17.8835 6.95947C17.8835 6.90495 17.8835 6.8488 17.8827 6.79265C18.3178 6.32342 18.6548 5.77207 18.8741 5.1709C19.0933 4.56972 19.1904 3.93083 19.1595 3.29167ZM16.404 5.96826C16.2663 6.13105 16.1967 6.3406 16.2095 6.55339C16.2176 6.69089 16.2168 6.82922 16.2168 6.95947C16.2151 7.82909 16.0876 8.69389 15.8384 9.52702C15.3246 11.4532 14.1793 13.1512 12.5859 14.3492C10.9926 15.5472 9.04324 16.1758 7.05017 16.1343C6.33424 16.1345 5.62077 16.0504 4.92452 15.8837C5.81236 15.5975 6.64251 15.1564 7.3765 14.5808C7.51169 14.4743 7.61063 14.3287 7.65974 14.1637C7.70886 13.9988 7.70574 13.8228 7.65082 13.6597C7.59589 13.4967 7.49186 13.3546 7.35299 13.253C7.21411 13.1514 7.04721 13.0953 6.87517 13.0923C6.18253 13.0815 5.52111 12.8023 5.03028 12.3135C5.15479 12.2899 5.2785 12.2606 5.40138 12.2256C5.58139 12.1744 5.73891 12.064 5.8486 11.9124C5.95828 11.7607 6.01373 11.5766 6.00602 11.3896C5.99832 11.2026 5.9279 11.0236 5.80612 10.8815C5.68433 10.7394 5.51826 10.6424 5.33465 10.6061C4.93259 10.5267 4.55427 10.3557 4.22907 10.1063C3.90388 9.85688 3.64058 9.53584 3.45965 9.16813C3.61025 9.18869 3.76182 9.20145 3.91374 9.20638C4.09423 9.20911 4.27091 9.15436 4.41822 9.05005C4.56554 8.94574 4.67587 8.79728 4.73324 8.62614C4.78823 8.45344 4.7854 8.26753 4.72519 8.09658C4.66497 7.92564 4.55066 7.77899 4.39959 7.67887C4.03304 7.43468 3.73279 7.10339 3.52572 6.71467C3.31864 6.32595 3.21122 5.89194 3.21306 5.45151C3.21306 5.39617 3.21469 5.34083 3.21794 5.28631C5.08566 7.02818 7.50821 8.05501 10.0588 8.18588C10.1875 8.19095 10.3157 8.1667 10.4337 8.11496C10.5517 8.06323 10.6564 7.98535 10.7399 7.88722C10.8226 7.78813 10.8811 7.67122 10.9109 7.54568C10.9407 7.42014 10.9409 7.2894 10.9116 7.16375C10.8639 6.96488 10.8396 6.76114 10.8392 6.55665C10.8399 5.84376 11.1235 5.16029 11.6275 4.6562C12.1316 4.15212 12.8151 3.86859 13.528 3.86784C13.8948 3.86686 14.2578 3.94192 14.5941 4.0883C14.9304 4.23467 15.2327 4.44917 15.4819 4.71826C15.578 4.82167 15.699 4.89876 15.8333 4.94221C15.9677 4.98566 16.1109 4.99403 16.2493 4.96651C16.5916 4.89989 16.9291 4.81017 17.2593 4.69796C17.034 5.15877 16.7462 5.58625 16.404 5.96826Z" fill="#0061FF"/>
</svg>
