<svg width="15" height="17" viewBox="0 0 15 17" fill="none" xmlns="http://www.w3.org/2000/svg">
<path d="M13.4832 15.9271C13.4832 16.3459 13.8228 16.6855 14.2416 16.6855C14.6605 16.6855 15 16.3459 15 15.9271H13.4832ZM10.8708 10.8708V10.1124V10.8708ZM4.12923 10.8708V10.1124V10.8708ZM0.758431 14.2416H0H0.758431ZM0 15.9271C0 16.3459 0.339561 16.6855 0.758431 16.6855C1.1773 16.6855 1.51686 16.3459 1.51686 15.9271H0ZM15 15.9271V14.2416H13.4832V15.9271H15ZM15 14.2416C15 13.1465 14.565 12.0963 13.7907 11.3219L12.7181 12.3944C13.208 12.8843 13.4832 13.5488 13.4832 14.2416H15ZM13.7907 11.3219C13.0163 10.5475 11.966 10.1124 10.8708 10.1124V11.6293C11.5636 11.6293 12.2281 11.9045 12.7181 12.3944L13.7907 11.3219ZM10.8708 10.1124H4.12923V11.6293H10.8708V10.1124ZM4.12923 10.1124C3.0341 10.1124 1.9838 10.5475 1.20942 11.3219L2.28201 12.3944C2.77192 11.9045 3.43639 11.6293 4.12923 11.6293V10.1124ZM1.20942 11.3219C0.435043 12.0963 0 13.1465 0 14.2416H1.51686C1.51686 13.5488 1.79209 12.8843 2.28201 12.3944L1.20942 11.3219ZM0 14.2416V15.9271H1.51686V14.2416H0ZM10.1124 4.12923C10.1124 5.57201 8.94281 6.74161 7.50004 6.74161V8.25848C9.78056 8.25848 11.6293 6.40975 11.6293 4.12923H10.1124ZM7.50004 6.74161C6.05727 6.74161 4.88766 5.57201 4.88766 4.12923H3.3708C3.3708 6.40975 5.21952 8.25848 7.50004 8.25848V6.74161ZM4.88766 4.12923C4.88766 2.68646 6.05727 1.51686 7.50004 1.51686V0C5.21952 0 3.3708 1.84872 3.3708 4.12923H4.88766ZM7.50004 1.51686C8.94281 1.51686 10.1124 2.68646 10.1124 4.12923H11.6293C11.6293 1.84872 9.78056 0 7.50004 0V1.51686Z" fill="#222326"/>
</svg>
