<svg width="30" height="71" viewBox="0 0 30 71" fill="none" xmlns="http://www.w3.org/2000/svg">
<rect width="30" height="30" rx="15" fill="#006600"/>
<path d="M15.8723 10.2137L19.087 13.6758L12.1064 21.1937L9.24027 21.5344C8.85657 21.5801 8.53239 21.2307 8.57508 20.8175L8.89399 17.7286L15.8723 10.2137ZM21.0753 9.69822L19.5659 8.07262C19.0951 7.56555 18.3314 7.56555 17.8606 8.07262L16.4406 9.60195L19.6553 13.0641L21.0753 11.5348C21.5461 11.0274 21.5461 10.2053 21.0753 9.69822Z" fill="white"/>
<rect x="1" y="42" width="28" height="28" rx="14" fill="white"/>
<path d="M13.8778 47.9231C12.6431 47.9231 11.6329 48.875 11.6329 50.0385H9.38796C8.15327 50.0385 7.14307 50.9904 7.14307 52.1539H22.8574C22.8574 50.9904 21.8471 50.0385 20.6125 50.0385H18.3676C18.3676 48.875 17.3574 47.9231 16.1227 47.9231H13.8778ZM9.38796 54.2692V64.4442C9.38796 64.6769 9.56756 64.8462 9.8145 64.8462H20.2084C20.4553 64.8462 20.6349 64.6769 20.6349 64.4442V54.2692H18.39V61.6731C18.39 62.2654 17.8961 62.7308 17.2676 62.7308C16.639 62.7308 16.1451 62.2654 16.1451 61.6731V54.2692H13.9002V61.6731C13.9002 62.2654 13.4063 62.7308 12.7778 62.7308C12.1492 62.7308 11.6553 62.2654 11.6553 61.6731V54.2692H9.41041H9.38796Z" fill="#006600"/>
<rect x="1" y="42" width="28" height="28" rx="14" stroke="#006600" stroke-width="2"/>
</svg>
