<svg width="40" height="40" viewBox="0 0 40 40" fill="none" xmlns="http://www.w3.org/2000/svg">
<rect width="40" height="40" rx="7" fill="#EDECFF"/>
<path d="M19.5 15.3448C22.3468 15.3448 24.6552 17.6527 24.6552 20.5H26C26 16.9099 23.0894 14 19.5 14V15.3448ZM24.6552 20.5C24.6552 23.3467 22.3467 25.6552 19.5 25.6552V27C23.0894 27 26 24.0894 26 20.5H24.6552ZM19.5 25.6552C16.6527 25.6552 14.3448 23.3468 14.3448 20.5H13C13 24.0894 15.9099 27 19.5 27V25.6552ZM14.3448 20.5C14.3448 17.6527 16.6527 15.3448 19.5 15.3448V14C15.9099 14 13 16.9099 13 20.5H14.3448Z" fill="#006600"/>
<path d="M19.8543 18.1085C19.8543 17.7371 19.5533 17.4361 19.1819 17.4361C18.8106 17.4361 18.5095 17.7371 18.5095 18.1085H19.8543ZM18.5095 20.8925C18.5095 21.2639 18.8106 21.5649 19.1819 21.5649C19.5533 21.5649 19.8543 21.2639 19.8543 20.8925H18.5095ZM18.5095 18.1085V20.8925H19.8543V18.1085H18.5095Z" fill="#006600"/>
<path d="M19.4092 21.9039C18.9141 21.9039 18.5127 22.3053 18.5127 22.8005C18.5127 23.2956 18.9141 23.697 19.4092 23.697V21.9039ZM19.4155 23.697C19.9107 23.697 20.3121 23.2956 20.3121 22.8005C20.3121 22.3053 19.9107 21.9039 19.4155 21.9039V23.697ZM19.4092 23.697H19.4155V21.9039H19.4092V23.697Z" fill="#006600"/>
</svg>
