<svg width="26" height="26" viewBox="0 0 26 26" fill="none" xmlns="http://www.w3.org/2000/svg">
<path d="M6.42008 15.4656L5.59733 18.537L2.5902 18.6006C1.69151 16.9338 1.18176 15.0266 1.18176 13C1.18176 11.0403 1.65837 9.1922 2.50318 7.56494H2.50383L5.18101 8.05576L6.35378 10.7169C6.10833 11.4325 5.97454 12.2007 5.97454 13C5.97463 13.8675 6.13178 14.6987 6.42008 15.4656Z" fill="#FBBB00"/>
<path d="M24.6118 10.7922C24.7475 11.5071 24.8183 12.2455 24.8183 13C24.8183 13.8461 24.7293 14.6715 24.5598 15.4676C23.9845 18.1767 22.4813 20.5422 20.3988 22.2162L20.3982 22.2156L17.0261 22.0435L16.5488 19.0643C17.9307 18.2539 19.0105 16.9857 19.5794 15.4676H13.2599V10.7922H19.6716H24.6118Z" fill="#518EF8"/>
<path d="M20.3983 22.2158L20.3989 22.2165C18.3736 23.8444 15.8009 24.8184 13.0002 24.8184C8.49954 24.8184 4.58657 22.3028 2.59045 18.6009L6.42032 15.4658C7.41836 18.1294 9.98785 20.0256 13.0002 20.0256C14.295 20.0256 15.508 19.6755 16.5489 19.0645L20.3983 22.2158Z" fill="#28B446"/>
<path d="M20.5434 3.90265L16.7148 7.03705C15.6375 6.36369 14.3641 5.97471 12.9999 5.97471C9.91928 5.97471 7.30174 7.95781 6.3537 10.7169L2.5037 7.56499H2.50305C4.46995 3.77279 8.43227 1.18188 12.9999 1.18188C15.8674 1.18188 18.4966 2.20332 20.5434 3.90265Z" fill="#F14336"/>
</svg>
