<svg width="20" height="20" viewBox="0 0 20 20" fill="none" xmlns="http://www.w3.org/2000/svg">
<g clip-path="url(#clip0_94_11136)">
<path d="M3.36719 17.2178C3.69079 17.2178 3.95313 16.9554 3.95313 16.6318C3.95313 16.3082 3.69079 16.0459 3.36719 16.0459C3.04358 16.0459 2.78125 16.3082 2.78125 16.6318C2.78125 16.9554 3.04358 17.2178 3.36719 17.2178Z" fill="#314CA3"/>
<path d="M15.867 9.62938C16.9018 9.47716 17.8406 9.00478 18.5821 8.26329C19.288 7.55743 19.7526 6.66634 19.9257 5.68637C20.0947 4.72919 19.9759 3.75563 19.5819 2.87094C19.4148 2.49571 18.9225 2.40469 18.6324 2.69497L16.2321 5.0952C16.1329 5.19426 15.9718 5.19426 15.8727 5.0952L14.9048 4.12743C14.806 4.02852 14.806 3.86758 14.9048 3.76868L17.3054 1.36813C17.596 1.07766 17.5044 0.585552 17.1295 0.418598C16.2447 0.0246138 15.2712 -0.0942925 14.314 0.0747701C13.334 0.247817 12.4428 0.712427 11.7369 1.41833C10.9954 2.15977 10.523 3.0986 10.3708 4.13329C10.2451 4.98719 10.3454 5.84153 10.6605 6.63083L8.90282 8.07462L4.9777 4.14966L5.66825 3.45915C5.91571 3.21172 5.89235 2.80305 5.61774 2.58555L2.96102 0.481333C2.72786 0.296684 2.39325 0.315981 2.1829 0.526333L0.52563 2.18352C0.315278 2.39383 0.295903 2.7284 0.48063 2.96161L2.58493 5.61821C2.80243 5.89278 3.21083 5.91645 3.45856 5.66872L4.14907 4.97821L7.99298 8.82196L0.7777 14.7488C-0.182886 15.5085 -0.265777 16.9379 0.600044 17.8037L2.19614 19.3997C3.06184 20.2654 4.49122 20.1828 5.25122 19.2221L11.1782 12.0071L11.7736 12.6025L10.9172 13.4588C10.6971 13.6789 10.6875 14.0327 10.8953 14.2643L15.3604 19.2422C16.2385 20.2169 17.7533 20.2574 18.6819 19.3288L19.3287 18.682C20.2592 17.7515 20.2151 16.2258 19.2316 15.3508C19.2312 15.3504 19.2308 15.3501 19.2304 15.3497L14.2295 10.9247C13.9976 10.7195 13.646 10.7302 13.4269 10.9492L12.6022 11.7739L11.9256 11.0973L13.3694 9.33966C14.1587 9.65478 15.0131 9.75501 15.867 9.62938ZM3.09508 4.37497L1.72325 2.64309L2.64247 1.72391L4.37442 3.09567L3.09508 4.37497ZM13.8658 12.1676L18.4531 16.2265C18.6854 16.4334 18.8183 16.7185 18.8274 17.0295C18.8365 17.3406 18.7203 17.6332 18.5001 17.8534L17.8533 18.5002C17.6341 18.7194 17.3428 18.8359 17.0332 18.8276C16.7235 18.8195 16.4386 18.6882 16.2319 18.4588L12.1383 13.895L13.8658 12.1676ZM12.7499 8.24778L10.6815 10.7656C10.6813 10.7659 10.681 10.7662 10.6807 10.7665L4.342 18.4828C4.3393 18.4861 4.33661 18.4894 4.33395 18.4928C4.00915 18.9064 3.39751 18.9438 3.02477 18.5711L1.42868 16.9751C1.0568 16.6033 1.09251 15.9915 1.50708 15.666C1.51044 15.6634 1.51376 15.6607 1.51708 15.6579L9.23368 9.31935C9.23391 9.31915 9.23411 9.31899 9.23434 9.3188L11.7524 7.2504C11.9662 7.07481 12.028 6.7736 11.9007 6.52802C11.1622 5.10348 11.4294 3.38305 12.5655 2.24692C13.2652 1.54727 14.2124 1.17547 15.1703 1.17547C15.3767 1.17547 15.5836 1.19274 15.7886 1.2277L14.0762 2.94005C13.5204 3.49583 13.5204 4.40016 14.0762 4.95598L15.044 5.92376C15.5999 6.4797 16.5047 6.47977 17.0606 5.92376L18.7727 4.21176C18.9699 5.36809 18.6039 6.5843 17.7535 7.4347C16.6173 8.57079 14.8968 8.83794 13.4722 8.09954C13.2267 7.9722 12.9254 8.03399 12.7499 8.24778Z" fill="#314CA3"/>
</g>
<defs>
<clipPath id="clip0_94_11136">
<rect width="20" height="20" fill="white"/>
</clipPath>
</defs>
</svg>
