<svg width="22" height="22" viewBox="0 0 22 22" fill="none" xmlns="http://www.w3.org/2000/svg">
<path d="M1.57143 0H0V20.4286C0 20.8453 0.165561 21.245 0.460261 21.5397C0.754961 21.8344 1.15466 22 1.57143 22H22V20.4286H1.57143V0Z" fill="#006600"/>
<path d="M22 5.5H16.5V7.07143H19.3207L13.3571 13.035L9.98643 9.65643C9.91339 9.58278 9.82649 9.52433 9.73074 9.48444C9.63499 9.44455 9.53229 9.42402 9.42857 9.42402C9.32485 9.42402 9.22215 9.44455 9.1264 9.48444C9.03066 9.52433 8.94376 9.58278 8.87071 9.65643L3.14286 15.3921L4.25071 16.5L9.42857 11.3221L12.7993 14.7007C12.8723 14.7744 12.9592 14.8328 13.055 14.8727C13.1507 14.9126 13.2534 14.9331 13.3571 14.9331C13.4609 14.9331 13.5636 14.9126 13.6593 14.8727C13.7551 14.8328 13.842 14.7744 13.915 14.7007L20.4286 8.17929V11H22V5.5Z" fill="#006600"/>
</svg>
