<svg width="24" height="24" viewBox="0 0 24 24" fill="none" xmlns="http://www.w3.org/2000/svg">
<path fill-rule="evenodd" clip-rule="evenodd" d="M21 21.7143C21 22.4244 20.5956 23 20.0968 23L7.90323 23C7.40437 23 7 22.4244 7 21.7143C7 21.0042 7.40437 20.4286 7.90323 20.4286L20.0968 20.4286C20.5956 20.4286 21 21.0042 21 21.7143Z" fill="#006600"/>
<path fill-rule="evenodd" clip-rule="evenodd" d="M21 14C21 14.7101 20.6518 15.2857 20.2222 15.2857L7.77778 15.2857C7.34821 15.2857 7 14.7101 7 14C7 13.2899 7.34821 12.7143 7.77778 12.7143L20.2222 12.7143C20.6518 12.7143 21 13.2899 21 14Z" fill="#006600"/>
<path fill-rule="evenodd" clip-rule="evenodd" d="M21 6.28571C21 6.99579 20.5956 7.57143 20.0968 7.57143L7.90323 7.57143C7.40437 7.57143 7 6.9958 7 6.28571C7 5.57564 7.40437 5.00001 7.90323 5.00001L20.0968 5C20.5956 5 21 5.57563 21 6.28571Z" fill="#006600"/>
</svg>
