<svg width="20" height="20" viewBox="0 0 20 20" fill="none" xmlns="http://www.w3.org/2000/svg">
<path d="M14.6895 5.92924L14.9993 5.61949L14.3797 5L14.07 5.30975L14.6895 5.92924ZM5.30974 14.0701L5 14.3799L5.61948 14.9994L5.92923 14.6896L5.30974 14.0701ZM14.07 5.30975L5.30974 14.0701L5.92923 14.6896L14.6895 5.92924L14.07 5.30975Z" fill="#222326"/>
<path d="M14.07 14.6896L14.3797 14.9994L14.9993 14.3799L14.6895 14.0701L14.07 14.6896ZM5.92923 5.30975L5.61948 5L5 5.61949L5.30974 5.92924L5.92923 5.30975ZM14.6895 14.0701L5.92923 5.30975L5.30974 5.92924L14.07 14.6896L14.6895 14.0701Z" fill="#222326"/>
</svg>
