<svg width="20" height="20" viewBox="0 0 20 20" fill="none" xmlns="http://www.w3.org/2000/svg">
<g clip-path="url(#clip0_13_7500)">
<path d="M15.1668 3.50005L14.4597 2.79294L15.1668 3.50005ZM16.8335 2.80969V1.80969V2.80969ZM19.1905 5.16671H20.1905H19.1905ZM18.5001 6.83338L19.2072 7.54049L18.5001 6.83338ZM7.2501 18.0834L7.51322 19.0482C7.68112 19.0024 7.83415 18.9136 7.95721 18.7905L7.2501 18.0834ZM2.66677 19.3334L1.70201 19.0703C1.60758 19.4165 1.70592 19.7867 1.95967 20.0405C2.21342 20.2942 2.58368 20.3926 2.92989 20.2982L2.66677 19.3334ZM3.91677 14.7501L3.20967 14.0429C3.08661 14.166 2.9978 14.319 2.95201 14.4869L3.91677 14.7501ZM15.8739 4.20715C15.9999 4.08114 16.1495 3.98118 16.3142 3.91299L15.5488 2.06523C15.1415 2.23394 14.7714 2.48121 14.4597 2.79294L15.8739 4.20715ZM16.3142 3.91299C16.4788 3.84479 16.6553 3.80969 16.8335 3.80969V1.80969C16.3926 1.80969 15.9561 1.89652 15.5488 2.06523L16.3142 3.91299ZM16.8335 3.80969C17.0117 3.80969 17.1881 3.84479 17.3528 3.91299L18.1181 2.06523C17.7109 1.89652 17.2743 1.80969 16.8335 1.80969V3.80969ZM17.3528 3.91299C17.5174 3.98118 17.667 4.08114 17.793 4.20715L19.2072 2.79294C18.8955 2.48121 18.5254 2.23394 18.1181 2.06523L17.3528 3.91299ZM17.793 4.20715C17.919 4.33316 18.019 4.48276 18.0872 4.6474L19.935 3.88204C19.7662 3.47474 19.519 3.10467 19.2072 2.79294L17.793 4.20715ZM18.0872 4.6474C18.1554 4.81204 18.1905 4.9885 18.1905 5.16671H20.1905C20.1905 4.72587 20.1037 4.28933 19.935 3.88204L18.0872 4.6474ZM18.1905 5.16671C18.1905 5.34492 18.1554 5.52138 18.0872 5.68602L19.935 6.45139C20.1037 6.04409 20.1905 5.60756 20.1905 5.16671H18.1905ZM18.0872 5.68602C18.019 5.85066 17.919 6.00026 17.793 6.12627L19.2072 7.54049C19.519 7.22876 19.7662 6.85868 19.935 6.45139L18.0872 5.68602ZM17.793 6.12627L6.543 17.3763L7.95721 18.7905L19.2072 7.54049L17.793 6.12627ZM6.98699 17.1186L2.40366 18.3686L2.92989 20.2982L7.51322 19.0482L6.98699 17.1186ZM3.63154 19.5965L4.88153 15.0132L2.95201 14.4869L1.70201 19.0703L3.63154 19.5965ZM4.62388 15.4572L15.8739 4.20715L14.4597 2.79294L3.20967 14.0429L4.62388 15.4572Z" fill="#222326"/>
</g>
<defs>
<clipPath id="clip0_13_7500">
<rect width="20" height="20" fill="white"/>
</clipPath>
</defs>
</svg>
