<svg width="232" height="157" viewBox="0 0 232 157" fill="none" xmlns="http://www.w3.org/2000/svg">
<rect x="0.249717" y="156.251" width="231.5" height="0.499433" stroke="#F3F3F5" stroke-width="0.499434" stroke-dasharray="4 4"/>
<rect x="0.249717" y="118.482" width="231.5" height="0.499433" stroke="#F3F3F5" stroke-width="0.499434" stroke-dasharray="4 4"/>
<rect x="0.249717" y="79.0714" width="231.5" height="0.499433" stroke="#F3F3F5" stroke-width="0.499434" stroke-dasharray="4 4"/>
<rect x="0.249717" y="39.6605" width="231.5" height="0.499433" stroke="#F3F3F5" stroke-width="0.499434" stroke-dasharray="4 4"/>
<rect x="0.249717" y="0.249717" width="231.5" height="0.499433" stroke="#F3F3F5" stroke-width="0.499434" stroke-dasharray="4 4"/>
<path d="M9.23793 134.69C8.79037 135.387 8.99268 136.315 9.6898 136.762C10.3869 137.21 11.3149 137.007 11.7624 136.31L9.23793 134.69ZM53.6408 68.3041L54.5212 67.0896C54.1872 66.8475 53.7682 66.7536 53.3628 66.83C52.9574 66.9065 52.6014 67.1465 52.3785 67.4937L53.6408 68.3041ZM95.0783 98.3446L94.1979 99.559C94.5484 99.8131 94.9917 99.9034 95.4137 99.8066C95.8356 99.7098 96.1952 99.4355 96.4 99.054L95.0783 98.3446ZM137.935 18.5L139.164 17.6403C138.866 17.2134 138.367 16.9719 137.847 17.0026C137.327 17.0332 136.86 17.3316 136.613 17.7906L137.935 18.5ZM180.508 79.3716L179.279 80.2313C179.507 80.5575 179.855 80.7797 180.247 80.8488C180.639 80.918 181.043 80.8284 181.369 80.6L180.508 79.3716ZM225.361 49.7689C226.039 49.2935 226.204 48.3581 225.728 47.6797C225.253 47.0013 224.318 46.8367 223.639 47.3122L225.361 49.7689ZM11.7624 136.31L54.903 69.1144L52.3785 67.4937L9.23793 134.69L11.7624 136.31ZM52.7604 69.5185L94.1979 99.559L95.9588 97.1301L54.5212 67.0896L52.7604 69.5185ZM96.4 99.054L139.257 19.2094L136.613 17.7906L93.7567 97.6352L96.4 99.054ZM136.706 19.3597L179.279 80.2313L181.737 78.5119L139.164 17.6403L136.706 19.3597ZM181.369 80.6L225.361 49.7689L223.639 47.3122L179.647 78.1433L181.369 80.6Z" fill="#006600"/>
<circle cx="9" cy="134" r="3.75" fill="#006600" stroke="#006600" stroke-width="2.5"/>
<path d="M55.75 68C55.75 70.071 54.071 71.75 52 71.75C49.9289 71.75 48.25 70.071 48.25 68C48.25 65.9289 49.9289 64.25 52 64.25C54.071 64.25 55.75 65.9289 55.75 68Z" fill="#006600" stroke="#006600" stroke-width="2.5"/>
<path d="M96.75 96C96.75 98.071 95.071 99.75 93 99.75C90.9289 99.75 89.25 98.071 89.25 96C89.25 93.9289 90.9289 92.25 93 92.25C95.071 92.25 96.75 93.9289 96.75 96Z" fill="#006600" stroke="#006600" stroke-width="2.5"/>
<circle cx="137" cy="18" r="3.75" fill="#006600" stroke="#006600" stroke-width="2.5"/>
<circle cx="179" cy="77" r="3.75" fill="#006600" stroke="#006600" stroke-width="2.5"/>
<circle cx="223" cy="47" r="3.75" fill="#006600" stroke="#006600" stroke-width="2.5"/>
</svg>
