<svg width="25" height="25" viewBox="0 0 25 25" fill="none" xmlns="http://www.w3.org/2000/svg">
<g clip-path="url(#clip0_103_14742)">
<path fill-rule="evenodd" clip-rule="evenodd" d="M9.64021 4.97558C11.0142 4.97558 12.128 3.86179 12.128 2.4878C12.128 1.11382 11.0142 0 9.64021 0C8.26627 0 7.15242 1.11382 7.15242 2.4878C7.15242 3.86179 8.26627 4.97558 9.64021 4.97558ZM8.12502 5.91397C8.10226 5.91397 8.07962 5.91435 8.05711 5.91516H6.84138H3.19861V3.11003H2.13241V5.91516H0.932924C0.417683 5.91516 0 6.33286 0 6.84808C0 7.3633 0.417683 7.781 0.932924 7.781H2.13241V19.1777C1.53043 19.3008 0.989434 19.628 0.600884 20.1039C0.212333 20.5799 7.46339e-05 21.1755 0 21.7899V24.9885H1.0662V21.2568H2.13241V24.9885H3.19861V21.2568H4.26483V24.9885H5.33104V21.7899C5.33091 21.1755 5.11871 20.5799 4.73011 20.1039C4.34158 19.628 3.80061 19.3008 3.19861 19.1777V7.781H6.27118V23.8784C6.27118 24.4375 6.72862 24.895 7.28782 24.895C7.84695 24.895 8.30439 24.4375 8.30439 23.8784V16.3074H10.9596V23.8784C10.9596 24.4375 11.4171 24.895 11.9763 24.895C12.5354 24.895 12.9928 24.4375 12.9928 23.8784V12.5908C13.552 12.5908 15.2786 11.5265 15.2786 8.9058C15.2786 6.93055 13.552 5.91397 12.9928 5.91397H8.12502ZM20.1368 6.41029C20.1369 6.41017 20.137 6.4101 20.5243 6.89672C20.9117 6.4101 20.9117 6.41017 20.9119 6.41029L20.9127 6.41091L20.9142 6.41216L20.9186 6.41564L20.9325 6.42696C20.944 6.43641 20.9599 6.4496 20.9795 6.4662C21.0188 6.49942 21.0733 6.54668 21.1381 6.60589C21.2668 6.72344 21.4401 6.89162 21.6152 7.09269C21.7888 7.29197 21.9754 7.53608 22.1211 7.80607C22.2644 8.07139 22.3902 8.4019 22.3902 8.76256C22.3902 9.12323 22.2644 9.45374 22.1211 9.71906C21.9754 9.98905 21.7888 10.2332 21.6152 10.4324C21.4438 10.6293 21.2741 10.7947 21.1463 10.9118V12.1939C21.3038 11.9422 21.524 11.6763 21.8292 11.5001C22.1416 11.3198 22.4907 11.2634 22.7921 11.2548C23.0988 11.2461 23.4035 11.2856 23.6628 11.3363C23.9245 11.3874 24.1569 11.4534 24.323 11.506C24.4067 11.5326 24.4748 11.5562 24.5232 11.5736C24.5385 11.5791 24.5518 11.5839 24.563 11.5881C24.5697 11.5906 24.5756 11.5927 24.5807 11.5947L24.5975 11.6011L24.6027 11.6031L24.6045 11.6038L24.6053 11.6041C24.6054 11.6041 24.6058 11.6043 24.3781 12.183C24.9931 12.2752 24.9931 12.2753 24.9931 12.2755L24.9929 12.2765L24.9926 12.2784L24.9918 12.284L24.9889 12.3017C24.9865 12.3164 24.983 12.3367 24.9785 12.362C24.9693 12.4127 24.9557 12.4835 24.9368 12.5692C24.8994 12.7394 24.8403 12.9736 24.7538 13.2258C24.668 13.4757 24.5498 13.7594 24.3889 14.0206C24.2308 14.2774 24.0074 14.5515 23.6951 14.7318C23.3827 14.9122 23.0336 14.9685 22.7322 14.9771C22.4255 14.9859 22.1208 14.9464 21.8615 14.8957C21.5997 14.8445 21.3674 14.7786 21.2013 14.7259C21.1896 14.7222 21.1783 14.7185 21.1673 14.715C21.1601 14.7127 21.1532 14.7104 21.1463 14.7082V16.5475C21.3038 16.2959 21.524 16.03 21.8292 15.8538C22.1416 15.6734 22.4907 15.6171 22.7921 15.6085C23.0988 15.5998 23.4035 15.6393 23.6628 15.69C23.9245 15.7411 24.1569 15.807 24.323 15.8597C24.4067 15.8862 24.4748 15.9098 24.5232 15.9272C24.5475 15.9359 24.5668 15.9431 24.5807 15.9483L24.5975 15.9547L24.6027 15.9568L24.6045 15.9575L24.6053 15.9577C24.6054 15.9578 24.6058 15.958 24.3781 16.5367C24.9931 16.6289 24.9931 16.629 24.9931 16.6291L24.9929 16.6302L24.9926 16.6321L24.9918 16.6376L24.9889 16.6554C24.9865 16.67 24.983 16.6904 24.9785 16.7157C24.9693 16.7663 24.9557 16.8371 24.9368 16.9229C24.8994 17.0931 24.8403 17.3272 24.7538 17.5794C24.668 17.8293 24.5498 18.113 24.3889 18.3742C24.2308 18.631 24.0074 18.9051 23.6951 19.0855C23.3827 19.2659 23.0336 19.3221 22.7322 19.3307C22.4255 19.3395 22.1208 19.3 21.8615 19.2493C21.5997 19.1981 21.3674 19.1322 21.2013 19.0795C21.1821 19.0734 21.1638 19.0675 21.1463 19.0618V20.9012C21.3038 20.6495 21.524 20.3836 21.8292 20.2074C22.1416 20.0271 22.4907 19.9707 22.7921 19.9621C23.0988 19.9534 23.4035 19.9929 23.6628 20.0436C23.9245 20.0947 24.1569 20.1607 24.323 20.2133C24.4067 20.2399 24.4748 20.2635 24.5232 20.2809C24.5475 20.2896 24.5668 20.2967 24.5807 20.302L24.5975 20.3084L24.6027 20.3104L24.6045 20.3111L24.6053 20.3114C24.6054 20.3114 24.6058 20.3116 24.3781 20.8903C24.9931 20.9825 24.9931 20.9826 24.9931 20.9828L24.9929 20.9838L24.9926 20.9857L24.9918 20.9913L24.9889 21.009C24.9877 21.0159 24.9864 21.0241 24.9848 21.0335C24.983 21.044 24.9809 21.056 24.9785 21.0693C24.9693 21.12 24.9557 21.1908 24.9368 21.2765C24.8994 21.4467 24.8403 21.6809 24.7538 21.9331C24.668 22.183 24.5498 22.4667 24.3889 22.7279C24.2308 22.9847 24.0074 23.2588 23.6951 23.4391C23.3827 23.6195 23.0336 23.6758 22.7322 23.6844C22.4255 23.6931 22.1208 23.6537 21.8615 23.603C21.5997 23.5518 21.3674 23.4858 21.2013 23.4332C21.1903 23.4297 21.1796 23.4263 21.1692 23.4229C21.1614 23.4204 21.1537 23.4179 21.1463 23.4154V24.9332C21.1463 25.2767 20.8678 25.5551 20.5243 25.5551C20.1808 25.5551 19.9024 25.2767 19.9024 24.9332V23.454C19.7433 23.5025 19.5374 23.5584 19.3092 23.603C19.0499 23.6537 18.7451 23.6931 18.4384 23.6844C18.137 23.6758 17.7879 23.6195 17.4756 23.4391C17.1633 23.2588 16.9399 22.9847 16.7817 22.7279C16.6209 22.4667 16.5027 22.183 16.4169 21.9331C16.3303 21.6809 16.2713 21.4467 16.2339 21.2765C16.215 21.1908 16.2013 21.12 16.1922 21.0693C16.1876 21.044 16.1842 21.0237 16.1818 21.009L16.1789 20.9913L16.178 20.9857L16.1778 20.9838L16.1777 20.9831C16.1777 20.9829 16.1775 20.9825 16.7926 20.8903C16.5649 20.3116 16.565 20.3115 16.5651 20.3115L16.5661 20.3111L16.5679 20.3104L16.5731 20.3084L16.5899 20.302C16.6039 20.2967 16.6232 20.2896 16.6474 20.2809C16.6958 20.2635 16.764 20.2399 16.8477 20.2133C17.0138 20.1607 17.2461 20.0947 17.5078 20.0436C17.7672 19.9929 18.0719 19.9534 18.3785 19.9621C18.68 19.9707 19.0291 20.0271 19.3414 20.2074C19.5748 20.3421 19.7585 20.5292 19.9024 20.7223V19.1004C19.7433 19.1489 19.5374 19.2047 19.3092 19.2493C19.0499 19.3 18.7451 19.3395 18.4384 19.3307C18.137 19.3221 17.7879 19.2659 17.4756 19.0855C17.1633 18.9051 16.9399 18.631 16.7817 18.3742C16.6209 18.113 16.5027 17.8293 16.4169 17.5794C16.3303 17.3272 16.2713 17.0931 16.2339 16.9229C16.215 16.8371 16.2013 16.7663 16.1922 16.7157C16.1876 16.6904 16.1842 16.67 16.1818 16.6554L16.1789 16.6376L16.178 16.6321L16.1778 16.6302L16.1777 16.6294C16.1777 16.6293 16.1775 16.6289 16.7926 16.5367C16.5649 15.958 16.565 15.9579 16.5651 15.9578L16.5661 15.9575L16.5679 15.9568L16.5731 15.9547L16.5899 15.9483C16.6039 15.9431 16.6232 15.9359 16.6474 15.9272C16.6958 15.9098 16.764 15.8862 16.8477 15.8597C17.0138 15.807 17.2461 15.7411 17.5078 15.69C17.7672 15.6393 18.0719 15.5998 18.3785 15.6085C18.68 15.6171 19.0291 15.6734 19.3414 15.8538C19.5748 15.9885 19.7585 16.1756 19.9024 16.3687V14.7467C19.7433 14.7952 19.5374 14.8511 19.3092 14.8957C19.0499 14.9464 18.7451 14.9859 18.4384 14.9771C18.137 14.9685 17.7879 14.9122 17.4756 14.7318C17.1633 14.5515 16.9399 14.2774 16.7817 14.0206C16.6209 13.7594 16.5027 13.4757 16.4169 13.2258C16.3303 12.9736 16.2713 12.7394 16.2339 12.5692C16.215 12.4835 16.2013 12.4127 16.1922 12.362C16.1898 12.3491 16.1878 12.3375 16.186 12.3273C16.1844 12.3174 16.1829 12.3089 16.1818 12.3017L16.1789 12.284L16.178 12.2784L16.1778 12.2765L16.1777 12.2758C16.1777 12.2756 16.1775 12.2752 16.7926 12.183C16.5649 11.6043 16.565 11.6043 16.5651 11.6042L16.5661 11.6038L16.5679 11.6031L16.5731 11.6011L16.5899 11.5947C16.6039 11.5894 16.6232 11.5823 16.6474 11.5736C16.6958 11.5562 16.764 11.5326 16.8477 11.506C17.0138 11.4534 17.2461 11.3874 17.5078 11.3363C17.7672 11.2856 18.0719 11.2461 18.3785 11.2548C18.68 11.2634 19.0291 11.3198 19.3414 11.5001C19.5748 11.6349 19.7585 11.8219 19.9024 12.015V10.9118C19.7746 10.7947 19.6049 10.6293 19.4334 10.4324C19.2598 10.2332 19.0733 9.98905 18.9275 9.71906C18.7842 9.45374 18.6585 9.12323 18.6585 8.76256C18.6585 8.4019 18.7842 8.07139 18.9275 7.80607C19.0733 7.53608 19.2598 7.29197 19.4334 7.09269C19.6086 6.89162 19.7818 6.72344 19.9105 6.60589C19.9753 6.54668 20.0299 6.49942 20.0691 6.4662C20.0888 6.4496 20.1046 6.43641 20.1161 6.42696L20.1301 6.41564L20.1344 6.41216L20.1359 6.41091L20.1368 6.41029ZM16.7926 12.183L16.1777 12.2758C16.1347 11.9892 16.2955 11.7103 16.5651 11.6042L16.7926 12.183ZM16.7926 16.5367L16.1777 16.6294C16.1347 16.3428 16.2955 16.0639 16.5651 15.9578L16.7926 16.5367ZM16.7926 20.8903L16.1777 20.9831C16.1347 20.6965 16.2955 20.4176 16.5651 20.3115L16.7926 20.8903ZM24.3781 20.8903L24.6053 20.3114C24.8749 20.4175 25.036 20.6962 24.9931 20.9828L24.3781 20.8903ZM24.3781 16.5367L24.6053 15.9577C24.8749 16.0638 25.036 16.3425 24.9931 16.6291L24.3781 16.5367ZM24.3781 12.183L24.6053 11.6041C24.8749 11.7102 25.036 11.9889 24.9931 12.2755L24.3781 12.183ZM20.5243 6.89672L20.1368 6.41029C20.3635 6.22986 20.6852 6.22986 20.9119 6.41029L20.5243 6.89672Z" fill="#006600"/>
</g>
<defs>
<clipPath id="clip0_103_14742">
<rect width="25" height="25" fill="white"/>
</clipPath>
</defs>
</svg>
