<svg width="40" height="40" viewBox="0 0 40 40" fill="none" xmlns="http://www.w3.org/2000/svg">
<rect width="40" height="40" rx="7" fill="#EDECFF"/>
<path d="M19.5 15.3448C22.3468 15.3448 24.6552 17.6527 24.6552 20.5H26C26 16.9099 23.0894 14 19.5 14V15.3448ZM24.6552 20.5C24.6552 23.3467 22.3467 25.6552 19.5 25.6552V27C23.0894 27 26 24.0894 26 20.5H24.6552ZM19.5 25.6552C16.6527 25.6552 14.3448 23.3468 14.3448 20.5H13C13 24.0894 15.9099 27 19.5 27V25.6552ZM14.3448 20.5C14.3448 17.6533 16.6533 15.3448 19.5 15.3448V14C15.9105 14 13 16.9105 13 20.5H14.3448Z" fill="#006600"/>
<path d="M21.8939 19.5207C21.3987 19.5207 20.9973 19.9221 20.9973 20.4173C20.9973 20.9124 21.3987 21.3138 21.8939 21.3138V19.5207ZM21.8995 21.3138C22.3947 21.3138 22.7961 20.9124 22.7961 20.4173C22.7961 19.9221 22.3947 19.5207 21.8995 19.5207V21.3138ZM21.8939 21.3138H21.8995V19.5207H21.8939V21.3138Z" fill="#006600"/>
<path d="M19.368 19.5207C18.8728 19.5207 18.4714 19.9221 18.4714 20.4173C18.4714 20.9124 18.8728 21.3138 19.368 21.3138V19.5207ZM19.3737 21.3138C19.8688 21.3138 20.2702 20.9124 20.2702 20.4173C20.2702 19.9221 19.8688 19.5207 19.3737 19.5207V21.3138ZM19.368 21.3138H19.3737V19.5207H19.368V21.3138Z" fill="#006600"/>
<path d="M16.8424 19.5207C16.3472 19.5207 15.9458 19.9221 15.9458 20.4173C15.9458 20.9124 16.3472 21.3138 16.8424 21.3138V19.5207ZM16.848 21.3138C17.3432 21.3138 17.7446 20.9124 17.7446 20.4173C17.7446 19.9221 17.3432 19.5207 16.848 19.5207V21.3138ZM16.8424 21.3138H16.848V19.5207H16.8424V21.3138Z" fill="#006600"/>
</svg>
