<svg width="20" height="20" viewBox="0 0 20 20" fill="none" xmlns="http://www.w3.org/2000/svg">
<g clip-path="url(#clip0_94_11083)">
<path d="M18.6545 9.57721H17.465C17.1942 8.81971 16.7579 8.1415 16.1994 7.58708L18.0339 6.77724C18.296 6.66153 18.4395 6.37239 18.365 6.09583C18.1438 5.27485 17.397 4.6709 16.5099 4.6709H14.9968C14.1267 4.6709 13.392 5.25203 13.1553 6.04895H11.5573C10.9571 8.26603 8.92971 9.90178 6.52751 9.90178C5.06114 9.90178 3.73453 9.29213 2.78683 8.31302C2.51991 8.69384 2.30128 9.11127 2.14015 9.55647C1.66151 9.45174 1.26796 9.07314 1.15792 8.58009C1.08745 8.26423 0.774048 8.06513 0.458422 8.13587C0.142601 8.20638 -0.0563065 8.51955 0.0142016 8.83537C0.134046 9.37236 0.435649 9.85994 0.863424 10.2082C1.1562 10.4465 1.50046 10.6124 1.86522 10.6957C1.83683 10.919 1.82214 11.1466 1.82214 11.3777V11.9458C1.82214 14.0991 3.09347 15.9538 4.92305 16.7943V18.0856C4.92305 18.7883 5.49278 19.3581 6.19555 19.3581C6.89833 19.3581 7.46806 18.7883 7.46806 18.0856V17.2745H12.235V18.0856C12.235 18.7883 12.8047 19.3581 13.5075 19.3581C14.2102 19.3581 14.78 18.7883 14.78 18.0856V16.7447C16.1177 16.0939 17.1422 14.8953 17.5645 13.4388H18.6544C19.3976 13.4388 20.0001 12.8335 20.0001 12.0868V10.9291C20.0001 10.1825 19.3977 9.57721 18.6545 9.57721ZM14.3309 9.91549C14.0085 9.91549 13.7471 9.65412 13.7471 9.33166C13.7471 9.0092 14.0085 8.74783 14.3309 8.74783C14.6534 8.74783 14.9148 9.0092 14.9148 9.33166C14.9148 9.65412 14.6534 9.91549 14.3309 9.91549Z" fill="#314CA3"/>
<path d="M6.5275 0.642578C4.3005 0.642578 2.48877 2.45657 2.48877 4.68623C2.48877 6.91593 4.30054 8.72992 6.5275 8.72992C8.75446 8.72992 10.5662 6.91593 10.5662 4.68623C10.5662 2.45649 8.75438 0.642578 6.5275 0.642578ZM6.15246 4.06837H6.90254C7.74864 4.06837 8.43696 4.75721 8.43696 5.60389C8.43696 6.37889 7.86004 7.02128 7.11344 7.12448V7.34456C7.11344 7.66816 6.85109 7.9305 6.5275 7.9305C6.2039 7.9305 5.94156 7.66816 5.94156 7.34456V7.13933H5.79207C5.14472 7.13933 4.618 6.61237 4.618 5.96463C4.618 5.64104 4.88034 5.37869 5.20394 5.37869C5.52753 5.37869 5.78988 5.64104 5.78988 5.96463L6.9025 5.96745C7.10242 5.96745 7.26504 5.80432 7.26504 5.60385C7.26504 5.40338 7.10242 5.24025 6.9025 5.24025H6.15242C5.30632 5.24025 4.618 4.55146 4.618 3.70478C4.618 2.92974 5.19491 2.28735 5.94156 2.18415V2.02794C5.94156 1.70434 6.2039 1.442 6.5275 1.442C6.85109 1.442 7.11344 1.70434 7.11344 2.02794V2.16927H7.26289C7.91024 2.16927 8.43696 2.69626 8.43696 3.344C8.43696 3.66759 8.17462 3.92994 7.85102 3.92994C7.52743 3.92994 7.26508 3.66759 7.26508 3.344C7.26508 3.34306 7.265 3.34267 7.265 3.34267L6.15246 3.34115C5.95254 3.34115 5.78992 3.50427 5.78992 3.70478C5.78992 3.90525 5.95254 4.06837 6.15246 4.06837Z" fill="#314CA3"/>
</g>
<defs>
<clipPath id="clip0_94_11083">
<rect width="20" height="20" fill="white"/>
</clipPath>
</defs>
</svg>
