<svg width="16" height="11" viewBox="0 0 16 11" fill="none" xmlns="http://www.w3.org/2000/svg">
<path d="M10.988 1.70421L10.5117 1.39407L10.988 1.70421ZM12.1854 1.38123V0.942627V1.38123ZM13.8789 2.48395H14.5525H13.8789ZM13.3829 3.26368L13.8592 3.57382L13.3829 3.26368ZM5.30008 8.52694L5.4773 8.95005C5.59039 8.92999 5.69348 8.89104 5.77636 8.83706L5.30008 8.52694ZM2.00708 9.11174L1.35725 8.9963C1.29365 9.14818 1.35988 9.31058 1.5308 9.42187C1.70171 9.53315 1.95111 9.57625 2.18431 9.53485L2.00708 9.11174ZM2.90517 6.96743L2.42888 6.6573C2.346 6.71127 2.28618 6.77839 2.25534 6.85204L2.90517 6.96743ZM11.4642 2.01434C11.559 1.95268 11.6714 1.90376 11.7952 1.87038L11.2796 1.05995C10.9925 1.13741 10.7315 1.25094 10.5117 1.39407L11.4642 2.01434ZM11.7952 1.87038C11.9188 1.83701 12.0515 1.81983 12.1854 1.81983V0.942627C11.8746 0.942627 11.5668 0.982494 11.2796 1.05995L11.7952 1.87038ZM12.1854 1.81983C12.3194 1.81983 12.4519 1.83701 12.5757 1.87038L13.0912 1.05995C12.8041 0.982494 12.4962 0.942627 12.1854 0.942627V1.81983ZM12.5757 1.87038C12.6995 1.90376 12.8119 1.95268 12.9066 2.01434L13.8592 1.39407C13.6394 1.25094 13.3784 1.13741 13.0912 1.05995L12.5757 1.87038ZM12.9066 2.01434C13.0013 2.07602 13.0764 2.14923 13.1277 2.2298L14.3722 1.89411C14.2533 1.70711 14.0789 1.53719 13.8592 1.39407L12.9066 2.01434ZM13.1277 2.2298C13.179 2.31037 13.2054 2.39673 13.2054 2.48395H14.5525C14.5525 2.28154 14.4912 2.08111 14.3722 1.89411L13.1277 2.2298ZM13.2054 2.48395C13.2054 2.57116 13.179 2.65752 13.1277 2.73809L14.3722 3.07378C14.4912 2.88678 14.5525 2.68635 14.5525 2.48395H13.2054ZM13.1277 2.73809C13.0764 2.81866 13.0013 2.89188 12.9066 2.95354L13.8592 3.57382C14.0789 3.4307 14.2533 3.26078 14.3722 3.07378L13.1277 2.73809ZM12.9066 2.95354L4.82379 8.21676L5.77636 8.83706L13.8592 3.57382L12.9066 2.95354ZM5.12285 8.10378L1.82985 8.68858L2.18431 9.53485L5.4773 8.95005L5.12285 8.10378ZM2.65691 9.22713L3.555 7.08284L2.25534 6.85204L1.35725 8.9963L2.65691 9.22713ZM3.38145 7.27757L11.4642 2.01434L10.5117 1.39407L2.42888 6.6573L3.38145 7.27757Z" fill="#5F6AFF"/>
</svg>
