<svg width="23" height="23" viewBox="0 0 23 23" fill="none" xmlns="http://www.w3.org/2000/svg">
<path d="M12.4567 15.8047C12.4567 16.0584 12.3559 16.3017 12.1765 16.4811C11.9971 16.6605 11.7538 16.7612 11.5002 16.7612C11.2465 16.7612 11.0032 16.6605 10.8238 16.4811C10.6444 16.3017 10.5436 16.0584 10.5436 15.8047C10.5436 15.551 10.6444 15.3077 10.8238 15.1283C11.0032 14.9489 11.2465 14.8481 11.5002 14.8481C11.7538 14.8481 11.9971 14.9489 12.1765 15.1283C12.3559 15.3077 12.4567 15.551 12.4567 15.8047ZM10.0491 8.47279C10.1562 8.25948 10.3054 8.06721 10.5159 7.92756C10.7215 7.78886 11.0276 7.67407 11.5002 7.67407C11.8675 7.67407 12.2329 7.78694 12.4892 7.97921C12.6121 8.06595 12.7116 8.18174 12.7788 8.31626C12.8461 8.45078 12.879 8.59985 12.8747 8.75018C12.8747 9.20932 12.6662 9.52498 12.2817 9.88464C12.1546 10.0013 12.0241 10.1142 11.8904 10.2233C11.7959 10.3017 11.7022 10.3811 11.6092 10.4614C11.3739 10.6652 11.108 10.9148 10.9033 11.2219L10.7827 11.4036V12.9351C10.7827 13.1253 10.8583 13.3078 10.9929 13.4423C11.1274 13.5769 11.3099 13.6525 11.5002 13.6525C11.6904 13.6525 11.8729 13.5769 12.0074 13.4423C12.142 13.3078 12.2176 13.1253 12.2176 12.9351V11.8637C12.3037 11.7681 12.4117 11.6648 12.5495 11.5452C12.6097 11.4926 12.6834 11.4314 12.7618 11.3663C12.9206 11.2324 13.1043 11.0794 13.2592 10.934C13.7719 10.4557 14.3095 9.78612 14.3095 8.75018C14.3139 8.37707 14.2291 8.00829 14.0623 7.67454C13.8954 7.34079 13.6512 7.05172 13.3501 6.83136C12.8106 6.42578 12.1296 6.23926 11.5002 6.23926C10.777 6.23926 10.1868 6.42196 9.72003 6.73379C9.31147 7.01001 8.98261 7.38867 8.76636 7.8319C8.68922 8.00101 8.68073 8.19346 8.74267 8.36871C8.80461 8.54395 8.93215 8.68832 9.09842 8.77139C9.2647 8.85447 9.45672 8.86977 9.63405 8.81407C9.81138 8.75837 9.96017 8.63601 10.0491 8.47279Z" fill="#006600" stroke="#006600"/>
<path fill-rule="evenodd" clip-rule="evenodd" d="M9.45682 1.16933C10.0493 0.734481 10.7651 0.5 11.5 0.5C12.2349 0.5 12.9507 0.734481 13.5432 1.16933L14.8584 2.13544C15.1205 2.32675 15.4257 2.45397 15.7471 2.50275L17.3598 2.7505C18.0862 2.86187 18.7581 3.20206 19.2778 3.7216C19.7975 4.24114 20.1379 4.91293 20.2495 5.63926L20.4972 7.25295C20.546 7.57435 20.6723 7.87948 20.8646 8.14158L21.8307 9.45682C22.2655 10.0493 22.5 10.7651 22.5 11.5C22.5 12.2349 22.2655 12.9507 21.8307 13.5432L20.8646 14.8584C20.6723 15.1207 20.5463 15.4256 20.4972 15.7471L20.2495 17.3598C20.1381 18.0862 19.7979 18.7581 19.2784 19.2778C18.7589 19.7975 18.0871 20.1379 17.3607 20.2495L15.7471 20.4972C15.4256 20.5463 15.1207 20.6723 14.8584 20.8646L13.5432 21.8307C12.9507 22.2655 12.2349 22.5 11.5 22.5C10.7651 22.5 10.0493 22.2655 9.45682 21.8307L8.14158 20.8646C7.87928 20.6723 7.57442 20.5463 7.25295 20.4972L5.64022 20.2495C4.91385 20.1381 4.24195 19.7979 3.72224 19.2784C3.20253 18.7589 2.86211 18.0871 2.7505 17.3607L2.50275 15.7471C2.45369 15.4256 2.32768 15.1207 2.13544 14.8584L1.16933 13.5432C0.734481 12.9507 0.5 12.2349 0.5 11.5C0.5 10.7651 0.734481 10.0493 1.16933 9.45682L2.13544 8.14158C2.32768 7.87928 2.45369 7.57442 2.50275 7.25295L2.7505 5.64022C2.86187 4.91385 3.20206 4.24195 3.7216 3.72224C4.24114 3.20253 4.91293 2.86211 5.63926 2.7505L7.25295 2.50275C7.57442 2.45369 7.87928 2.32768 8.14158 2.13544L9.45682 1.16933ZM12.6938 2.32579C12.3476 2.07183 11.9294 1.9349 11.5 1.9349C11.0706 1.9349 10.6524 2.07183 10.3062 2.32579L8.99003 3.2919C8.54149 3.62109 8.02004 3.83702 7.47008 3.92131L5.85735 4.1681C5.43263 4.23319 5.03978 4.43212 4.73595 4.73595C4.43212 5.03978 4.23319 5.43263 4.1681 5.85735L3.92131 7.47008C3.83717 8.02037 3.62123 8.54216 3.2919 8.99099L2.32579 10.3062C2.07183 10.6524 1.9349 11.0706 1.9349 11.5C1.9349 11.9294 2.07183 12.3476 2.32579 12.6938L3.2919 14.01C3.62109 14.4585 3.83702 14.98 3.92131 15.5299L4.1681 17.1426C4.23337 17.5672 4.43239 17.9598 4.7362 18.2635C5.04001 18.5671 5.43277 18.7659 5.85735 18.8309L7.47008 19.0796C8.02029 19.1635 8.54207 19.3791 8.99099 19.7081L10.3062 20.6742C10.6524 20.9282 11.0706 21.0651 11.5 21.0651C11.9294 21.0651 12.3476 20.9282 12.6938 20.6742L14.01 19.7081C14.4585 19.3789 14.98 19.163 15.5299 19.0787L17.1426 18.8319C17.5672 18.7666 17.9598 18.5676 18.2635 18.2638C18.5671 17.96 18.7659 17.5672 18.8309 17.1426L19.0796 15.5299C19.1635 14.9797 19.3791 14.4579 19.7081 14.009L20.6742 12.6938C20.9282 12.3476 21.0651 11.9294 21.0651 11.5C21.0651 11.0706 20.9282 10.6524 20.6742 10.3062L19.7081 8.99003C19.3789 8.54149 19.163 8.02004 19.0787 7.47008L18.8319 5.85735C18.7668 5.43263 18.5679 5.03978 18.264 4.73595C17.9602 4.43212 17.5674 4.23319 17.1426 4.1681L15.5299 3.92131C14.9796 3.83717 14.4578 3.62123 14.009 3.2919L12.6938 2.32579Z" fill="#006600" stroke="#006600"/>
</svg>
