<svg width="44" height="44" viewBox="0 0 44 44" fill="none" xmlns="http://www.w3.org/2000/svg">
<rect x="7" y="7" width="30" height="30" rx="15" fill="#006600"/>
<path d="M22 7C22.4973 7 22.9742 7.19754 23.3258 7.54918C23.6775 7.90081 23.875 8.37772 23.875 8.875V20.125H35.125C35.6223 20.125 36.0992 20.3225 36.4508 20.6742C36.8025 21.0258 37 21.5027 37 22C37 22.4973 36.8025 22.9742 36.4508 23.3258C36.0992 23.6775 35.6223 23.875 35.125 23.875H23.875V35.125C23.875 35.6223 23.6775 36.0992 23.3258 36.4508C22.9742 36.8025 22.4973 37 22 37C21.5027 37 21.0258 36.8025 20.6742 36.4508C20.3225 36.0992 20.125 35.6223 20.125 35.125V23.875H8.875C8.37772 23.875 7.90081 23.6775 7.54918 23.3258C7.19754 22.9742 7 22.4973 7 22C7 21.5027 7.19754 21.0258 7.54918 20.6742C7.90081 20.3225 8.37772 20.125 8.875 20.125H20.125V8.875C20.125 8.37772 20.3225 7.90081 20.6742 7.54918C21.0258 7.19754 21.5027 7 22 7Z" fill="white"/>
</svg>
