<svg width="25" height="25" viewBox="0 0 25 25" fill="none" xmlns="http://www.w3.org/2000/svg">
<path d="M23.875 3.57144V5.80356C23.875 7.77065 18.9759 9.375 12.9375 9.375C6.89907 9.375 2 7.77065 2 5.80356V3.57144C2 1.60435 6.89907 0 12.9375 0C18.9759 0 23.875 1.60435 23.875 3.57144ZM23.875 8.59375V13.6161C23.875 15.5832 18.9759 17.1875 12.9375 17.1875C6.89907 17.1875 2 15.5832 2 13.6161V8.59375C4.34985 10.2121 8.65078 10.9654 12.9375 10.9654C17.2242 10.9654 21.5251 10.2121 23.875 8.59375ZM23.875 16.4062V21.4286C23.875 23.3957 18.9759 25 12.9375 25C6.89907 25 2 23.3957 2 21.4286V16.4062C4.34985 18.0246 8.65078 18.7779 12.9375 18.7779C17.2242 18.7779 21.5251 18.0246 23.875 16.4062Z" fill="#006600"/>
</svg>
