<svg width="45" height="45" viewBox="0 0 45 45" fill="none" xmlns="http://www.w3.org/2000/svg">
<path d="M23.9567 28.3044C23.9567 28.5581 23.8559 28.8014 23.6765 28.9808C23.4971 29.1602 23.2538 29.261 23.0002 29.261C22.7465 29.261 22.5032 29.1602 22.3238 28.9808C22.1444 28.8014 22.0436 28.5581 22.0436 28.3044C22.0436 28.0508 22.1444 27.8075 22.3238 27.6281C22.5032 27.4487 22.7465 27.3479 23.0002 27.3479C23.2538 27.3479 23.4971 27.4487 23.6765 27.6281C23.8559 27.8075 23.9567 28.0508 23.9567 28.3044ZM21.5491 20.9725C21.6562 20.7592 21.8054 20.567 22.0159 20.4273C22.2215 20.2886 22.5276 20.1738 23.0002 20.1738C23.3675 20.1738 23.7329 20.2867 23.9892 20.479C24.1121 20.5657 24.2116 20.6815 24.2788 20.816C24.3461 20.9505 24.379 21.0996 24.3747 21.2499C24.3747 21.7091 24.1662 22.0247 23.7817 22.3844C23.6546 22.501 23.5241 22.614 23.3904 22.723C23.2959 22.8015 23.2022 22.8809 23.1092 22.9612C22.8739 23.1649 22.608 23.4146 22.4033 23.7216L22.2827 23.9034V25.4348C22.2827 25.6251 22.3583 25.8076 22.4929 25.9421C22.6274 26.0766 22.8099 26.1522 23.0002 26.1522C23.1904 26.1522 23.3729 26.0766 23.5074 25.9421C23.642 25.8076 23.7176 25.6251 23.7176 25.4348V24.3635C23.8037 24.2678 23.9117 24.1645 24.0495 24.045C24.1097 23.9923 24.1834 23.9311 24.2618 23.8661C24.4206 23.7322 24.6043 23.5791 24.7592 23.4337C25.2719 22.9555 25.8095 22.2859 25.8095 21.2499C25.8139 20.8768 25.7291 20.508 25.5623 20.1743C25.3954 19.8405 25.1512 19.5515 24.8501 19.3311C24.3106 18.9255 23.6296 18.739 23.0002 18.739C22.277 18.739 21.6868 18.9217 21.22 19.2335C20.8115 19.5098 20.4826 19.8884 20.2664 20.3317C20.1892 20.5008 20.1807 20.6932 20.2427 20.8685C20.3046 21.0437 20.4322 21.1881 20.5984 21.2711C20.7647 21.3542 20.9567 21.3695 21.1341 21.3138C21.3114 21.2581 21.4602 21.1358 21.5491 20.9725Z" fill="#006600"/>
<path fill-rule="evenodd" clip-rule="evenodd" d="M20.9568 13.6693C21.5493 13.2345 22.2651 13 23 13C23.7349 13 24.4507 13.2345 25.0432 13.6693L26.3584 14.6354C26.6205 14.8268 26.9257 14.954 27.2471 15.0028L28.8598 15.2505C29.5862 15.3619 30.2581 15.7021 30.7778 16.2216C31.2975 16.7411 31.6379 17.4129 31.7495 18.1393L31.9972 19.7529C32.046 20.0743 32.1723 20.3795 32.3646 20.6416L33.3307 21.9568C33.7655 22.5493 34 23.2651 34 24C34 24.7349 33.7655 25.4507 33.3307 26.0432L32.3646 27.3584C32.1723 27.6207 32.0463 27.9256 31.9972 28.2471L31.7495 29.8598C31.6381 30.5862 31.2979 31.2581 30.7784 31.7778C30.2589 32.2975 29.5871 32.6379 28.8607 32.7495L27.2471 32.9972C26.9256 33.0463 26.6207 33.1723 26.3584 33.3646L25.0432 34.3307C24.4507 34.7655 23.7349 35 23 35C22.2651 35 21.5493 34.7655 20.9568 34.3307L19.6416 33.3646C19.3793 33.1723 19.0744 33.0463 18.7529 32.9972L17.1402 32.7495C16.4138 32.6381 15.7419 32.2979 15.2222 31.7784C14.7025 31.2589 14.3621 30.5871 14.2505 29.8607L14.0028 28.2471C13.9537 27.9256 13.8277 27.6207 13.6354 27.3584L12.6693 26.0432C12.2345 25.4507 12 24.7349 12 24C12 23.2651 12.2345 22.5493 12.6693 21.9568L13.6354 20.6416C13.8277 20.3793 13.9537 20.0744 14.0028 19.7529L14.2505 18.1402C14.3619 17.4138 14.7021 16.7419 15.2216 16.2222C15.7411 15.7025 16.4129 15.3621 17.1393 15.2505L18.7529 15.0028C19.0744 14.9537 19.3793 14.8277 19.6416 14.6354L20.9568 13.6693ZM24.1938 14.8258C23.8476 14.5718 23.4294 14.4349 23 14.4349C22.5706 14.4349 22.1524 14.5718 21.8062 14.8258L20.49 15.7919C20.0415 16.1211 19.52 16.337 18.9701 16.4213L17.3574 16.6681C16.9326 16.7332 16.5398 16.9321 16.2359 17.2359C15.9321 17.5398 15.7332 17.9326 15.6681 18.3574L15.4213 19.9701C15.3372 20.5204 15.1212 21.0422 14.7919 21.491L13.8258 22.8062C13.5718 23.1524 13.4349 23.5706 13.4349 24C13.4349 24.4294 13.5718 24.8476 13.8258 25.1938L14.7919 26.51C15.1211 26.9585 15.337 27.48 15.4213 28.0299L15.6681 29.6426C15.7334 30.0672 15.9324 30.4598 16.2362 30.7635C16.54 31.0671 16.9328 31.2659 17.3574 31.3309L18.9701 31.5796C19.5203 31.6635 20.0421 31.8791 20.491 32.2081L21.8062 33.1742C22.1524 33.4282 22.5706 33.5651 23 33.5651C23.4294 33.5651 23.8476 33.4282 24.1938 33.1742L25.51 32.2081C25.9585 31.8789 26.48 31.663 27.0299 31.5787L28.6426 31.3319C29.0672 31.2666 29.4598 31.0676 29.7635 30.7638C30.0671 30.46 30.2659 30.0672 30.3309 29.6426L30.5796 28.0299C30.6635 27.4797 30.8791 26.9579 31.2081 26.509L32.1742 25.1938C32.4282 24.8476 32.5651 24.4294 32.5651 24C32.5651 23.5706 32.4282 23.1524 32.1742 22.8062L31.2081 21.49C30.8789 21.0415 30.663 20.52 30.5787 19.9701L30.3319 18.3574C30.2668 17.9326 30.0679 17.5398 29.764 17.2359C29.4602 16.9321 29.0674 16.7332 28.6426 16.6681L27.0299 16.4213C26.4796 16.3372 25.9578 16.1212 25.509 15.7919L24.1938 14.8258Z" fill="#006600"/>
</svg>
