<svg width="22" height="22" viewBox="0 0 22 22" fill="none" xmlns="http://www.w3.org/2000/svg">
<path d="M0.999997 18.7777V3.22221C0.999997 1.99492 1.99492 0.999997 3.22221 0.999997H15.6351C16.2244 0.999997 16.7896 1.23412 17.2064 1.65087L20.3491 4.79355C20.7658 5.21031 20.9999 5.77553 20.9999 6.36491V18.7777C20.9999 20.0051 20.0051 20.9999 18.7777 20.9999H3.22221C1.99492 20.9999 0.999997 20.0051 0.999997 18.7777Z" stroke="#006600" stroke-width="2"/>
<path d="M7.22231 7.66664H14.7778C15.1461 7.66664 15.4445 7.36817 15.4445 6.99998V1.66666C15.4445 1.29847 15.1461 0.999997 14.7778 0.999997H7.22231C6.85412 0.999997 6.55565 1.29847 6.55565 1.66666V6.99998C6.55565 7.36817 6.85412 7.66664 7.22231 7.66664Z" stroke="#006600" stroke-width="2"/>
<path d="M4.33324 12.7778V21H17.6665V12.7778C17.6665 12.4096 17.3681 12.1111 16.9999 12.1111H4.9999C4.63172 12.1111 4.33324 12.4096 4.33324 12.7778Z" stroke="#006600" stroke-width="2"/>
</svg>
