<svg width="40" height="40" viewBox="0 0 40 40" fill="none" xmlns="http://www.w3.org/2000/svg">
<rect width="40" height="40" rx="7" fill="#EDECFF"/>
<path d="M22.3847 16.8215C22.5035 17.1724 22.8782 17.3584 23.2215 17.2369C23.5647 17.1154 23.7467 16.7324 23.6278 16.3815L22.3847 16.8215ZM20.355 14.6724L20.3524 15.3449H20.355V14.6724ZM17.5386 17.527L16.8809 17.524V17.527H17.5386ZM16.8809 18.8922C16.8809 19.2635 17.1754 19.5646 17.5386 19.5646C17.9019 19.5646 18.1964 19.2635 18.1964 18.8922H16.8809ZM23.6278 16.3815C23.1587 14.9965 21.8716 14 20.355 14V15.3449C21.2937 15.3449 22.0933 15.9612 22.3847 16.8215L23.6278 16.3815ZM20.3576 14C18.4459 13.9923 16.8892 15.5694 16.8809 17.524L18.1964 17.5299C18.2016 16.3182 19.1667 15.34 20.3524 15.3449L20.3576 14ZM16.8809 17.527V17.5396H18.1964V17.527H16.8809ZM16.8809 17.5396V18.8922H18.1964V17.5396H16.8809Z" fill="#8982FF"/>
<path d="M22.7037 25.6554H17.9947V27.0002H22.7037V25.6554ZM17.9947 25.6554C17.0676 25.6554 16.3155 24.8868 16.3155 23.9382H15C15 25.6293 16.3408 27.0002 17.9947 27.0002V25.6554ZM16.3155 23.9382V21.2368H15V23.9382H16.3155ZM16.3155 21.2368C16.3155 20.2882 17.0676 19.5196 17.9947 19.5196V18.1748C16.3408 18.1748 15 19.5457 15 21.2368H16.3155ZM17.9947 19.5196H22.7037V18.1748H17.9947V19.5196ZM22.7037 19.5196C23.6308 19.5196 24.3828 20.2882 24.3828 21.2368H25.6984C25.6984 19.5457 24.3575 18.1748 22.7037 18.1748V19.5196ZM24.3828 21.2368V23.9382H25.6984V21.2368H24.3828ZM24.3828 23.9382C24.3828 24.8868 23.6308 25.6554 22.7037 25.6554V27.0002C24.3575 27.0002 25.6984 25.6293 25.6984 23.9382H24.3828Z" fill="#8982FF"/>
<path d="M20.6993 21.8882C20.6993 21.5169 20.4048 21.2158 20.0416 21.2158C19.6783 21.2158 19.3838 21.5169 19.3838 21.8882H20.6993ZM19.3838 23.2881C19.3838 23.6595 19.6783 23.9605 20.0416 23.9605C20.4048 23.9605 20.6993 23.6595 20.6993 23.2881H19.3838ZM19.3838 21.8882V23.2881H20.6993V21.8882H19.3838Z" fill="#8982FF"/>
</svg>
