<svg width="20" height="20" viewBox="0 0 20 20" fill="none" xmlns="http://www.w3.org/2000/svg">
<path d="M14.45 4.54983C14.2523 4.54983 14.0589 4.60848 13.8945 4.71836C13.73 4.82825 13.6018 4.98442 13.5262 5.16715C13.4505 5.34988 13.4307 5.55094 13.4692 5.74492C13.5078 5.9389 13.6031 6.11709 13.7429 6.25694C13.8828 6.39679 14.061 6.49203 14.2549 6.53062C14.4489 6.5692 14.65 6.5494 14.8327 6.47371C15.0154 6.39803 15.1716 6.26985 15.2815 6.1054C15.3914 5.94095 15.45 5.74761 15.45 5.54983C15.45 5.28462 15.3447 5.03026 15.1571 4.84273C14.9696 4.65519 14.7153 4.54983 14.45 4.54983ZM18.2834 6.5665C18.2672 5.87508 18.1377 5.191 17.9 4.5415C17.6881 3.98578 17.3584 3.48257 16.9334 3.0665C16.5207 2.63936 16.0163 2.31165 15.4584 2.10817C14.8106 1.8633 14.1257 1.73085 13.4334 1.7165C12.55 1.6665 12.2667 1.6665 10 1.6665C7.73334 1.6665 7.45 1.6665 6.56667 1.7165C5.8743 1.73085 5.18946 1.8633 4.54167 2.10817C3.98473 2.31371 3.48078 2.64114 3.06667 3.0665C2.63952 3.47915 2.31181 3.98353 2.10833 4.5415C1.86347 5.18929 1.73101 5.87413 1.71667 6.5665C1.66667 7.44983 1.66667 7.73317 1.66667 9.99983C1.66667 12.2665 1.66667 12.5498 1.71667 13.4332C1.73101 14.1255 1.86347 14.8104 2.10833 15.4582C2.31181 16.0161 2.63952 16.5205 3.06667 16.9332C3.48078 17.3585 3.98473 17.686 4.54167 17.8915C5.18946 18.1364 5.8743 18.2688 6.56667 18.2832C7.45 18.3332 7.73334 18.3332 10 18.3332C12.2667 18.3332 12.55 18.3332 13.4334 18.2832C14.1257 18.2688 14.8106 18.1364 15.4584 17.8915C16.0163 17.688 16.5207 17.3603 16.9334 16.9332C17.3602 16.5187 17.6903 16.015 17.9 15.4582C18.1377 14.8087 18.2672 14.1246 18.2834 13.4332C18.2834 12.5498 18.3334 12.2665 18.3334 9.99983C18.3334 7.73317 18.3334 7.44983 18.2834 6.5665ZM16.7834 13.3332C16.7773 13.8621 16.6815 14.3863 16.5 14.8832C16.367 15.2458 16.1533 15.5735 15.875 15.8415C15.6047 16.1169 15.2777 16.3302 14.9167 16.4665C14.4198 16.648 13.8957 16.7438 13.3667 16.7498C12.5334 16.7915 12.225 16.7998 10.0333 16.7998C7.84167 16.7998 7.53334 16.7998 6.7 16.7498C6.15075 16.7601 5.60383 16.6755 5.08334 16.4998C4.73815 16.3566 4.42613 16.1438 4.16667 15.8748C3.89008 15.6071 3.67904 15.2792 3.55 14.9165C3.34655 14.4125 3.23371 13.8765 3.21667 13.3332C3.21667 12.4998 3.16667 12.1915 3.16667 9.99983C3.16667 7.80817 3.16667 7.49983 3.21667 6.6665C3.22041 6.12571 3.31913 5.58979 3.50834 5.08317C3.65504 4.73143 3.88022 4.41788 4.16667 4.1665C4.41985 3.87997 4.73274 3.65241 5.08334 3.49983C5.5913 3.31654 6.12667 3.22073 6.66667 3.2165C7.5 3.2165 7.80834 3.1665 10 3.1665C12.1917 3.1665 12.5 3.1665 13.3334 3.2165C13.8623 3.22257 14.3865 3.31837 14.8834 3.49983C15.2621 3.64038 15.6019 3.86887 15.875 4.1665C16.1481 4.42248 16.3615 4.73544 16.5 5.08317C16.6852 5.59061 16.7811 6.12632 16.7834 6.6665C16.825 7.49983 16.8334 7.80817 16.8334 9.99983C16.8334 12.1915 16.825 12.4998 16.7834 13.3332ZM10 5.72483C9.15485 5.72648 8.32914 5.97861 7.62722 6.44935C6.92529 6.92009 6.37865 7.58833 6.05637 8.36963C5.73408 9.15093 5.65061 10.0102 5.8165 10.8389C5.98239 11.6677 6.3902 12.4286 6.9884 13.0256C7.5866 13.6227 8.34835 14.029 9.17739 14.1933C10.0064 14.3576 10.8656 14.2724 11.6462 13.9486C12.4269 13.6248 13.0941 13.0769 13.5635 12.374C14.0328 11.6712 14.2834 10.845 14.2834 9.99983C14.2845 9.43742 14.1744 8.88034 13.9594 8.36063C13.7444 7.84092 13.4288 7.36884 13.0308 6.97154C12.6327 6.57424 12.16 6.25957 11.6398 6.04561C11.1197 5.83165 10.5624 5.72264 10 5.72483ZM10 12.7748C9.45116 12.7748 8.91464 12.6121 8.4583 12.3072C8.00195 12.0022 7.64627 11.5689 7.43624 11.0618C7.2262 10.5547 7.17125 9.99676 7.27832 9.45846C7.3854 8.92016 7.64969 8.4257 8.03778 8.03761C8.42587 7.64952 8.92033 7.38523 9.45863 7.27815C9.99693 7.17108 10.5549 7.22603 11.0619 7.43607C11.569 7.6461 12.0024 8.00178 12.3074 8.45813C12.6123 8.91447 12.775 9.45099 12.775 9.99983C12.775 10.3643 12.7033 10.7251 12.5638 11.0618C12.4243 11.3985 12.2199 11.7044 11.9623 11.9621C11.7046 12.2197 11.3986 12.4241 11.0619 12.5636C10.7253 12.7031 10.3644 12.7748 10 12.7748Z" fill="#0061FF"/>
</svg>
