<svg width="20" height="20" viewBox="0 0 20 20" fill="none" xmlns="http://www.w3.org/2000/svg">
<path d="M18.5539 2.02315C18.3166 1.82576 18.0303 1.6964 17.7253 1.64882C17.4204 1.60124 17.1082 1.63724 16.8221 1.75297L1.88802 7.78244C1.56864 7.91384 1.29678 8.13926 1.10852 8.42878C0.920252 8.71831 0.824489 9.05824 0.833937 9.40346C0.843385 9.74868 0.957598 10.0829 1.16141 10.3617C1.36523 10.6404 1.64902 10.8507 1.9751 10.9644L4.99593 12.015L6.67968 17.583C6.70256 17.6574 6.73577 17.7282 6.77833 17.7934C6.78479 17.8034 6.7939 17.8108 6.80077 17.8205C6.84994 17.8891 6.90936 17.9498 6.97696 18.0003C6.99618 18.015 7.01459 18.0287 7.03514 18.0417C7.11425 18.0942 7.20186 18.1326 7.29408 18.1551L7.30395 18.156L7.30954 18.1584C7.36499 18.1696 7.42142 18.1754 7.478 18.1755C7.48344 18.1755 7.48827 18.1729 7.49367 18.1728C7.57905 18.1713 7.66369 18.1566 7.74457 18.1292C7.76339 18.1228 7.77952 18.112 7.79777 18.1043C7.85809 18.0793 7.91523 18.0473 7.96802 18.0088C8.01029 17.9732 8.05257 17.9376 8.09487 17.902L10.3467 15.4159L13.7052 18.0176C14.0009 18.2478 14.3648 18.3729 14.7396 18.3732C15.1322 18.3727 15.5128 18.2372 15.8174 17.9895C16.122 17.7418 16.3322 17.3968 16.4128 17.0125L19.1317 3.66541C19.1933 3.36501 19.1721 3.05351 19.0703 2.76423C18.9685 2.47496 18.79 2.2188 18.5539 2.02315ZM7.80843 12.2803C7.69289 12.3954 7.6139 12.542 7.58138 12.7018L7.32346 13.9552L6.67007 11.7943L10.0578 10.0302L7.80843 12.2803ZM14.7266 16.7L10.7576 13.6255C10.5916 13.4972 10.3833 13.4361 10.1743 13.4545C9.96523 13.4729 9.7708 13.5694 9.62972 13.7248L8.90854 14.5208L9.16341 13.2821L15.0659 7.37958C15.2068 7.23888 15.2926 7.05237 15.3079 6.85385C15.3231 6.65532 15.2668 6.4579 15.149 6.29734C15.0312 6.13678 14.8599 6.02371 14.6659 5.97861C14.472 5.9335 14.2683 5.95934 14.0918 6.05145L5.62072 10.462L2.51709 9.32622L17.4992 3.33254L14.7266 16.7Z" fill="#0061FF"/>
</svg>
