<svg width="6" height="10" viewBox="0 0 6 10" fill="none" xmlns="http://www.w3.org/2000/svg">
<path d="M1.3642 0.231231C1.05212 -0.0770771 0.54614 -0.0770771 0.23406 0.231231C-0.0780199 0.53954 -0.0780199 1.03941 0.23406 1.34772L1.3642 0.231231ZM5.06116 5L5.62623 5.55824C5.93831 5.24994 5.93831 4.75006 5.62623 4.44176L5.06116 5ZM0.23406 8.65228C-0.0780199 8.96059 -0.0780199 9.46046 0.23406 9.76877C0.54614 10.0771 1.05212 10.0771 1.3642 9.76877L0.23406 8.65228ZM0.23406 1.34772L4.49609 5.55824L5.62623 4.44176L1.3642 0.231231L0.23406 1.34772ZM4.49609 4.44176L0.23406 8.65228L1.3642 9.76877L5.62623 5.55824L4.49609 4.44176Z" fill="black"/>
</svg>
