<svg width="27" height="25" viewBox="0 0 27 25" fill="none" xmlns="http://www.w3.org/2000/svg">
<path d="M13.5002 15.0483C13.3522 15.0491 13.2054 15.0238 13.0683 14.9739C12.9312 14.9239 12.8066 14.8504 12.7015 14.7574L8.20146 10.7445C7.98962 10.5556 7.87061 10.2994 7.87061 10.0322C7.87061 9.76507 7.98962 9.50885 8.20146 9.31994C8.4133 9.13103 8.70062 9.0249 9.00021 9.0249C9.2998 9.0249 9.58712 9.13103 9.79896 9.31994L13.5002 12.6306L17.2015 9.32997C17.4167 9.16562 17.6935 9.07974 17.9766 9.08949C18.2598 9.09924 18.5284 9.20391 18.7287 9.38258C18.9291 9.56125 19.0464 9.80076 19.0574 10.0532C19.0683 10.3057 18.972 10.5526 18.7877 10.7445L14.2877 14.7574C14.0782 14.9427 13.7953 15.0472 13.5002 15.0483Z" fill="#006600"/>
</svg>
