<svg width="15" height="15" viewBox="0 0 15 15" fill="none" xmlns="http://www.w3.org/2000/svg">
<path d="M12.3137 6.83866C12.3137 9.86247 9.86247 12.3137 6.83866 12.3137V13.6773C10.6156 13.6773 13.6773 10.6156 13.6773 6.83866H12.3137ZM6.83866 12.3137C3.81489 12.3137 1.36364 9.86247 1.36364 6.83866H0C0 10.6156 3.06178 13.6773 6.83866 13.6773V12.3137ZM1.36364 6.83866C1.36364 3.81489 3.81489 1.36364 6.83866 1.36364V0C3.06178 0 0 3.06178 0 6.83866H1.36364ZM6.83866 1.36364C9.86247 1.36364 12.3137 3.81489 12.3137 6.83866H13.6773C13.6773 3.06178 10.6156 0 6.83866 0V1.36364Z" fill="#AAAAAA"/>
<path d="M13.8361 14.8006C14.1024 15.0669 14.5341 15.0669 14.8004 14.8006C15.0666 14.5344 15.0667 14.1027 14.8004 13.8364L13.8361 14.8006ZM12.0731 11.1089C11.8069 10.8426 11.3752 10.8426 11.1089 11.1089C10.8426 11.3751 10.8426 11.8068 11.1089 12.0731L12.0731 11.1089ZM14.8004 13.8364L12.0731 11.1089L11.1089 12.0731L13.8361 14.8006L14.8004 13.8364Z" fill="#AAAAAA"/>
</svg>
