<svg width="20" height="19" viewBox="0 0 20 19" fill="none" xmlns="http://www.w3.org/2000/svg">
<path d="M0.75 0C0.335786 0 0 0.335786 0 0.75C0 1.16421 0.335786 1.5 0.75 1.5V0ZM4.08333 0.75L4.81875 0.602807C4.74859 0.252289 4.4408 0 4.08333 0V0.75ZM6.31667 11.9083L7.0523 11.7622L7.05208 11.7611L6.31667 11.9083ZM7.98333 13.25V12.5C7.97854 12.5 7.97375 12.5 7.96896 12.5001L7.98333 13.25ZM16.0833 13.25L16.0977 12.5001C16.0929 12.5 16.0881 12.5 16.0833 12.5V13.25ZM17.75 11.9083L18.4857 12.0545L18.4867 12.0488L17.75 11.9083ZM19.0833 4.91667L19.8201 5.05716C19.8619 4.8376 19.8037 4.6108 19.6612 4.43858C19.5187 4.26636 19.3069 4.16667 19.0833 4.16667V4.91667ZM4.91667 4.16667C4.50245 4.16667 4.16667 4.50245 4.16667 4.91667C4.16667 5.33088 4.50245 5.66667 4.91667 5.66667V4.16667ZM7.5 17.4167C7.5 17.4627 7.46269 17.5 7.41667 17.5V19C8.29112 19 9 18.2911 9 17.4167H7.5ZM7.41667 17.5C7.37064 17.5 7.33333 17.4627 7.33333 17.4167H5.83333C5.83333 18.2911 6.54222 19 7.41667 19V17.5ZM7.33333 17.4167C7.33333 17.3706 7.37064 17.3333 7.41667 17.3333V15.8333C6.54222 15.8333 5.83333 16.5422 5.83333 17.4167H7.33333ZM7.41667 17.3333C7.46269 17.3333 7.5 17.3706 7.5 17.4167H9C9 16.5422 8.29112 15.8333 7.41667 15.8333V17.3333ZM16.6667 17.4167C16.6667 17.4627 16.6294 17.5 16.5833 17.5V19C17.4578 19 18.1667 18.2911 18.1667 17.4167H16.6667ZM16.5833 17.5C16.5373 17.5 16.5 17.4627 16.5 17.4167H15C15 18.2911 15.7089 19 16.5833 19V17.5ZM16.5 17.4167C16.5 17.3706 16.5373 17.3333 16.5833 17.3333V15.8333C15.7089 15.8333 15 16.5422 15 17.4167H16.5ZM16.5833 17.3333C16.6294 17.3333 16.6667 17.3706 16.6667 17.4167H18.1667C18.1667 16.5422 17.4578 15.8333 16.5833 15.8333V17.3333ZM0.75 1.5H4.08333V0H0.75V1.5ZM3.34792 0.897193L5.58125 12.0555L7.05208 11.7611L4.81875 0.602807L3.34792 0.897193ZM5.58104 12.0544C5.69153 12.6108 5.99418 13.1105 6.43599 13.4661L7.37659 12.2977C7.209 12.1628 7.09421 11.9732 7.0523 11.7622L5.58104 12.0544ZM6.43599 13.4661C6.8778 13.8218 7.43063 14.0107 7.9977 13.9999L7.96896 12.5001C7.75387 12.5043 7.54417 12.4326 7.37659 12.2977L6.43599 13.4661ZM7.98333 14H16.0833V12.5H7.98333V14ZM16.069 13.9999C16.636 14.0107 17.1889 13.8218 17.6307 13.4661L16.6901 12.2977C16.5225 12.4326 16.3128 12.5043 16.0977 12.5001L16.069 13.9999ZM17.6307 13.4661C18.0725 13.1105 18.3751 12.6108 18.4856 12.0544L17.0144 11.7622C16.9725 11.9732 16.8577 12.1628 16.6901 12.2977L17.6307 13.4661ZM18.4867 12.0488L19.8201 5.05716L18.3466 4.77617L17.0133 11.7678L18.4867 12.0488ZM19.0833 4.16667H4.91667V5.66667H19.0833V4.16667Z" fill="#222326"/>
</svg>
