<svg width="40" height="40" viewBox="0 0 40 40" fill="none" xmlns="http://www.w3.org/2000/svg">
<rect width="40" height="40" rx="7" fill="#EDECFF"/>
<path d="M19.5 15.3448C22.3468 15.3448 24.6552 17.6527 24.6552 20.5H26C26 16.9099 23.0894 14 19.5 14V15.3448ZM24.6552 20.5C24.6552 23.3467 22.3467 25.6552 19.5 25.6552V27C23.0894 27 26 24.0894 26 20.5H24.6552ZM19.5 25.6552C16.6527 25.6552 14.3448 23.3468 14.3448 20.5H13C13 24.0894 15.9099 27 19.5 27V25.6552ZM14.3448 20.5C14.3448 17.6533 16.6533 15.3448 19.5 15.3448V14C15.9105 14 13 16.9105 13 20.5H14.3448Z" fill="#8982FF"/>
<path d="M21.8936 19.5205C21.3985 19.5205 20.9971 19.9219 20.9971 20.4171C20.9971 20.9122 21.3985 21.3136 21.8936 21.3136V19.5205ZM21.8993 21.3136C22.3944 21.3136 22.7958 20.9122 22.7958 20.4171C22.7958 19.9219 22.3944 19.5205 21.8993 19.5205V21.3136ZM21.8936 21.3136H21.8993V19.5205H21.8936V21.3136Z" fill="#8982FF"/>
<path d="M19.3682 19.5205C18.8731 19.5205 18.4717 19.9219 18.4717 20.4171C18.4717 20.9122 18.8731 21.3136 19.3682 21.3136V19.5205ZM19.3739 21.3136C19.8691 21.3136 20.2705 20.9122 20.2705 20.4171C20.2705 19.9219 19.8691 19.5205 19.3739 19.5205V21.3136ZM19.3682 21.3136H19.3739V19.5205H19.3682V21.3136Z" fill="#8982FF"/>
<path d="M16.8419 19.5205C16.3467 19.5205 15.9453 19.9219 15.9453 20.4171C15.9453 20.9122 16.3467 21.3136 16.8419 21.3136V19.5205ZM16.8475 21.3136C17.3427 21.3136 17.7441 20.9122 17.7441 20.4171C17.7441 19.9219 17.3427 19.5205 16.8475 19.5205V21.3136ZM16.8419 21.3136H16.8475V19.5205H16.8419V21.3136Z" fill="#8982FF"/>
</svg>
