<svg width="13" height="15" viewBox="0 0 13 15" fill="none" xmlns="http://www.w3.org/2000/svg">
<path d="M12.2069 8.9931L12.9799 9.06017C12.9818 9.03786 12.9828 9.01549 12.9828 8.9931H12.2069ZM0.775862 8.9931H0C0 9.01549 0.00096931 9.03787 0.00290586 9.06018L0.775862 8.9931ZM8.67421 13.9749C8.96096 13.6565 8.9353 13.166 8.6169 12.8792C8.29849 12.5924 7.80791 12.6181 7.52116 12.9365L8.67421 13.9749ZM5.40059 12.9371C5.11419 12.6184 4.62364 12.5921 4.30492 12.8786C3.98618 13.1649 3.95998 13.6555 4.24637 13.9742L5.40059 12.9371ZM6.49138 12.2079C8.3846 12.2079 9.90581 12.092 10.9905 11.6672C11.5516 11.4475 12.0349 11.131 12.3894 10.6724C12.7461 10.2111 12.9274 9.66403 12.9799 9.06017L11.4339 8.92603C11.4017 9.29841 11.3002 9.54433 11.1618 9.72334C11.0213 9.90512 10.7973 10.0764 10.4246 10.2223C9.6419 10.5289 8.39006 10.6562 6.49138 10.6562V12.2079ZM12.9828 8.9931C12.9828 8.41755 12.8914 7.96501 12.7406 7.57032C12.5964 7.19302 12.4014 6.88564 12.2614 6.6514C12.1158 6.40752 12.0001 6.19908 11.9133 5.93011C11.827 5.6626 11.7597 5.30336 11.7597 4.77343H10.208C10.208 5.4405 10.2936 5.96333 10.4366 6.40657C10.5791 6.84836 10.7693 7.17935 10.9293 7.44725C11.0952 7.72479 11.2059 7.90151 11.2911 8.12426C11.3696 8.32961 11.431 8.59308 11.431 8.9931H12.9828ZM11.7597 4.77343C11.7597 2.45857 9.62335 0 6.49138 0V1.55172C8.79955 1.55172 10.208 3.34837 10.208 4.77343H11.7597ZM6.49138 0C3.35941 0 1.22302 2.45857 1.22302 4.77343H2.77474C2.77474 3.34837 4.18322 1.55172 6.49138 1.55172V0ZM1.22302 4.77343C1.22302 5.30336 1.15571 5.6626 1.0694 5.93011C0.982623 6.19908 0.867026 6.40752 0.721324 6.6514C0.581382 6.88564 0.38641 7.19302 0.242217 7.57032C0.0913831 7.96501 0 8.41755 0 8.9931H1.55172C1.55172 8.59308 1.61322 8.32961 1.6917 8.12426C1.77682 7.90151 1.8876 7.72479 2.05342 7.44725C2.21347 7.17935 2.40363 6.84836 2.54616 6.40657C2.68917 5.96333 2.77474 5.4405 2.77474 4.77343H1.22302ZM0.00290586 9.06018C0.0554286 9.66539 0.2367 10.2134 0.593543 10.6753C0.948349 11.1346 1.43207 11.4509 1.99339 11.6702C3.07808 12.0939 4.59931 12.2079 6.49138 12.2079V10.6562C4.59222 10.6562 3.34074 10.5306 2.55801 10.2248C2.1856 10.0794 1.96194 9.90844 1.82151 9.72667C1.68313 9.54755 1.58134 9.30074 1.54882 8.92601L0.00290586 9.06018ZM7.52116 12.9365C6.90906 13.6162 6.01536 13.6213 5.40059 12.9371L4.24637 13.9742C5.48367 15.3512 7.45177 15.3323 8.67421 13.9749L7.52116 12.9365Z" fill="black"/>
</svg>
