<svg width="20" height="20" viewBox="0 0 20 20" fill="none" xmlns="http://www.w3.org/2000/svg">
<path d="M14.6845 9.0492C14.6845 12.1615 12.1615 14.6845 9.0492 14.6845V15.5984C12.6662 15.5984 15.5984 12.6662 15.5984 9.0492H14.6845ZM9.0492 14.6845C5.93688 14.6845 3.41384 12.1615 3.41384 9.0492H2.5C2.5 12.6662 5.43218 15.5984 9.0492 15.5984V14.6845ZM3.41384 9.0492C3.41384 5.93688 5.93688 3.41384 9.0492 3.41384V2.5C5.43218 2.5 2.5 5.43218 2.5 9.0492H3.41384ZM9.0492 3.41384C12.1615 3.41384 14.6845 5.93688 14.6845 9.0492H15.5984C15.5984 5.43218 12.6662 2.5 9.0492 2.5V3.41384Z" fill="#222326"/>
<path d="M16.5308 17.1768L16.8539 17.4999L17.5001 16.8538L17.177 16.5307L16.5308 17.1768ZM13.8643 13.218L13.5412 12.8949L12.895 13.5411L13.2181 13.8642L13.8643 13.218ZM17.177 16.5307L13.8643 13.218L13.2181 13.8642L16.5308 17.1768L17.177 16.5307Z" fill="#222326"/>
</svg>
