<svg width="324" height="39" viewBox="0 0 324 39" fill="none" xmlns="http://www.w3.org/2000/svg">
<rect width="42" height="39" rx="19.5" fill="#006600"/>
<path d="M22.4929 13.006L27.9936 18.5067L16.049 30.4513L11.1447 30.9927C10.4881 31.0653 9.93344 30.5101 10.0065 29.8536L10.5522 24.9458L22.4929 13.006ZM31.3958 12.187L28.813 9.60423C28.0073 8.79859 26.7007 8.79859 25.8951 9.60423L23.4652 12.0341L28.966 17.5348L31.3958 15.1049C32.2014 14.2989 32.2014 12.9927 31.3958 12.187Z" fill="white"/>
<rect x="283" y="1" width="40" height="37" rx="18.5" fill="white"/>
<path d="M301.429 9C299.7 9 298.286 10.2375 298.286 11.75H295.143C293.414 11.75 292 12.9875 292 14.5H314C314 12.9875 312.586 11.75 310.857 11.75H307.714C307.714 10.2375 306.3 9 304.571 9H301.429ZM295.143 17.25V30.4775C295.143 30.78 295.394 31 295.74 31H310.291C310.637 31 310.889 30.78 310.889 30.4775V17.25H307.746V26.875C307.746 27.645 307.054 28.25 306.174 28.25C305.294 28.25 304.603 27.645 304.603 26.875V17.25H301.46V26.875C301.46 27.645 300.769 28.25 299.889 28.25C299.009 28.25 298.317 27.645 298.317 26.875V17.25H295.174H295.143Z" fill="#006600"/>
<rect x="283" y="1" width="40" height="37" rx="18.5" stroke="#006600" stroke-width="2"/>
</svg>
