<svg width="20" height="20" viewBox="0 0 20 20" fill="none" xmlns="http://www.w3.org/2000/svg">
<path d="M11.7916 9.8956C14.5198 9.8956 16.739 7.676 16.739 4.9478C16.739 2.2196 14.5198 0 11.7916 0C9.06335 0 6.84375 2.2196 6.84375 4.9478C6.84375 7.676 9.06335 9.8956 11.7916 9.8956ZM11.2056 2.03951V1.90513C11.2056 1.5813 11.4677 1.31918 11.7916 1.31918C12.115 1.31918 12.3775 1.5813 12.3775 1.90513V2.04029C13.0748 2.18991 13.5994 2.81102 13.5994 3.55245C13.5994 3.87589 13.3369 4.1384 13.0135 4.1384C12.6896 4.1384 12.4275 3.87589 12.4275 3.55245C12.4275 3.3458 12.2591 3.17744 12.0525 3.17744H11.5271C11.3204 3.17744 11.1521 3.3458 11.1521 3.55245C11.1521 3.67081 11.2087 3.78331 11.304 3.85363L11.7916 4.21458L12.976 5.09116C13.365 5.37906 13.5994 5.83962 13.6025 6.32401V6.32948C13.6053 6.74277 13.4471 7.13263 13.1564 7.42678C12.9408 7.64514 12.6713 7.79163 12.3775 7.85335V7.99047C12.3775 8.3143 12.115 8.57642 11.7916 8.57642C11.4677 8.57642 11.2056 8.3143 11.2056 7.99047V7.85531C10.9196 7.79437 10.6568 7.65374 10.4443 7.44358C10.1501 7.15333 9.98681 6.76582 9.98447 6.35253C9.98251 6.02908 10.2431 5.76501 10.5665 5.76306H10.5704C10.8923 5.76306 11.1544 6.02322 11.1564 6.3455C11.1572 6.54773 11.3199 6.71816 11.5333 6.71816C11.8571 6.71621 11.7365 6.71691 12.058 6.71504C12.2659 6.7134 12.4322 6.5446 12.4306 6.33729V6.33182C12.4299 6.21463 12.3732 6.10291 12.2787 6.03299L11.7916 5.67243L10.6068 4.79584C10.2146 4.50521 9.98017 4.04035 9.98017 3.55245C9.98017 2.80946 10.5064 2.18795 11.2056 2.03951Z" fill="#314CA3"/>
<path d="M3.7751 12.7106C3.6249 12.4502 3.29126 12.3596 3.02926 12.5107L0.273008 14.1018C0.0120243 14.2529 -0.0775095 14.5867 0.0731589 14.848L2.89019 19.7271C3.04098 19.988 3.37458 20.0776 3.63604 19.927L6.39229 18.3355C6.65366 18.1848 6.74284 17.851 6.59214 17.5897L3.7751 12.7106Z" fill="#314CA3"/>
<path d="M19.5682 11.7367C19.303 11.3684 18.7897 11.2852 18.4217 11.5504C17.3053 12.3547 15.1614 13.8993 14.9911 14.0224C14.9126 14.0892 14.8302 14.1497 14.7442 14.2032C14.4071 14.4153 14.0161 14.5286 13.6079 14.5286H10.8011C10.4777 14.5286 10.2152 14.2665 10.2152 13.9427C10.2152 13.6184 10.4781 13.3567 10.8011 13.3567H13.8028C14.2438 13.3567 14.597 12.9895 14.5786 12.5477C14.5614 12.1286 14.2036 11.8035 13.784 11.8035H11.4992C11.3445 11.6399 11.175 11.4899 10.9933 11.3559C10.3687 10.8953 9.59681 10.623 8.76124 10.623C7.27565 10.623 5.79748 11.559 5.18457 12.8083L7.58151 16.9596H12.0777C12.9606 16.9596 13.8301 16.7338 14.5954 16.2935C14.8606 16.1412 15.1446 15.958 15.4525 15.7369C16.7424 14.8103 19.3795 12.8852 19.3815 12.884C19.7503 12.6192 19.8339 12.1051 19.5682 11.7367Z" fill="#314CA3"/>
</svg>
