<svg width="20" height="20" viewBox="0 0 20 20" fill="none" xmlns="http://www.w3.org/2000/svg">
<path fill-rule="evenodd" clip-rule="evenodd" d="M7.85204 0.951762C7.06355 0.951762 6.42439 1.59094 6.42439 2.37941C6.42439 3.16787 7.06355 3.80705 7.85204 3.80705C8.64053 3.80705 9.27968 3.16787 9.27968 2.37941C9.27968 1.59094 8.64053 0.951762 7.85204 0.951762ZM5.47263 2.37941C5.47263 1.0653 6.53794 0 7.85204 0C9.16614 0 10.2314 1.0653 10.2314 2.37941C10.2314 3.32462 9.68028 4.14112 8.88184 4.52501H10.4173C10.6371 4.52501 10.881 4.61386 11.0921 4.72464C11.3181 4.84323 11.5623 5.01612 11.7885 5.24212C12.2434 5.69654 12.6421 6.38452 12.6421 7.29012C12.6421 8.4042 12.2726 9.21815 11.8157 9.75894C11.5896 10.0266 11.343 10.2264 11.1114 10.3618C11.0413 10.4028 10.968 10.4406 10.8932 10.473V18.7463C10.8932 19.4369 10.3301 20 9.63945 20C8.9488 20 8.38569 19.4369 8.38569 18.7463V13.4293H7.30582V18.7463C7.30582 19.4369 6.74276 20 6.05211 20C5.36147 20 4.79836 19.4369 4.79836 18.7463V6.90537H2.4474V15.1496C2.908 15.2438 3.32194 15.4941 3.61922 15.8583C3.91655 16.2225 4.07892 16.6782 4.07901 17.1483V19.5957H3.2632V16.7404H2.4474V19.5957H1.6316V16.7404H0.815798V19.5957H0V17.1483C5.71057e-05 16.6782 0.162466 16.2225 0.459763 15.8583C0.75706 15.4941 1.171 15.2438 1.6316 15.1496V6.90537H1.1897C0.532649 6.90537 0 6.37271 0 5.71567C0 5.05862 0.532649 4.52596 1.1897 4.52596H1.6316V2.85551H2.4474V4.52596H5.71053H6.63278C6.65272 4.52534 6.67266 4.52501 6.6927 4.52501H6.82223C6.0238 4.14112 5.47263 3.32462 5.47263 2.37941ZM5.27424 5.95361H2.4474V5.47773H5.71053H6.64073H6.64925L6.65777 5.47739C6.66933 5.47701 6.68094 5.47677 6.6927 5.47677H10.4173C10.4169 5.47677 10.417 5.47668 10.4173 5.47677L10.4195 5.47739C10.4341 5.48025 10.5136 5.49595 10.65 5.56748C10.792 5.642 10.9583 5.75802 11.1158 5.91544C11.4285 6.22776 11.6903 6.68437 11.6903 7.29012C11.6903 8.18125 11.3993 8.7771 11.0886 9.14472C11.0239 9.22139 10.9581 9.28834 10.8936 9.34616V6.66234H9.94182V9.63379L9.94139 10.1097V18.7463C9.94139 18.9113 9.80444 19.0482 9.63945 19.0482C9.47441 19.0482 9.33745 18.9113 9.33745 18.7463V12.9534V12.4776H8.86157H6.82994H6.35406V12.9534V18.7463C6.35406 18.9113 6.2171 19.0482 6.05211 19.0482C5.88708 19.0482 5.75012 18.9113 5.75012 18.7463V6.42949V5.95361H5.27424ZM1.1897 5.47773H1.6316V5.95361H1.1897C1.05829 5.95361 0.951762 5.84706 0.951762 5.71567C0.951762 5.58423 1.05829 5.47773 1.1897 5.47773Z" fill="#006600"/>
<path fill-rule="evenodd" clip-rule="evenodd" d="M16.18 8.08994C16.4428 8.08994 16.6559 8.30299 16.6559 8.56582V19.511C16.6559 19.7739 16.4428 19.9869 16.18 19.9869C15.9172 19.9869 15.7041 19.7739 15.7041 19.511V8.56582C15.7041 8.30299 15.9172 8.08994 16.18 8.08994Z" fill="#006600"/>
<path fill-rule="evenodd" clip-rule="evenodd" d="M17.2167 17.5215C17.2701 17.5349 17.3269 17.5477 17.3856 17.5592C17.5427 17.5899 17.7013 17.6082 17.8421 17.6042C17.9869 17.6001 18.0789 17.5732 18.1301 17.5437C18.1812 17.5142 18.2505 17.4479 18.3265 17.3246C18.4004 17.2047 18.4638 17.0581 18.5158 16.9067C18.5352 16.8501 18.5524 16.7945 18.5676 16.7416C18.5142 16.7282 18.4575 16.7154 18.3987 16.7039C18.2416 16.6732 18.083 16.6549 17.9422 16.6589C17.7974 16.6631 17.7054 16.6899 17.6542 16.7194C17.6031 16.749 17.5338 16.8152 17.4578 16.9386C17.384 17.0585 17.3205 17.205 17.2686 17.3565C17.2491 17.413 17.2319 17.4686 17.2167 17.5215ZM19.1285 16.4177C19.3028 15.9749 19.3027 15.9749 19.3026 15.9748L19.3019 15.9745L19.3005 15.974L19.2965 15.9725L19.2836 15.9676C19.273 15.9636 19.2582 15.9581 19.2397 15.9514C19.2026 15.9381 19.1504 15.9201 19.0864 15.8997C18.9593 15.8594 18.7816 15.809 18.5813 15.7699C18.3829 15.7311 18.1497 15.7009 17.9151 15.7075C17.6844 15.7141 17.4173 15.7572 17.1783 15.8952C16.9393 16.0332 16.7685 16.2429 16.6475 16.4394C16.5243 16.6393 16.4339 16.8563 16.3683 17.0475C16.3021 17.2405 16.2569 17.4197 16.2282 17.55C16.2138 17.6155 16.2033 17.6697 16.1963 17.7085C16.1929 17.7278 16.1902 17.7434 16.1884 17.7546L16.1862 17.7682L16.1855 17.7724L16.1853 17.7739L16.1852 17.7744C16.1852 17.7746 16.1852 17.7749 16.6558 17.8454L16.1852 17.7744C16.1524 17.9937 16.2752 18.207 16.4815 18.2882L16.6558 17.8454C16.4815 18.2882 16.4814 18.2882 16.4815 18.2882L16.4825 18.2886L16.4839 18.2891L16.4879 18.2907L16.5007 18.2956C16.5113 18.2996 16.5261 18.3051 16.5447 18.3117C16.5817 18.325 16.6339 18.3431 16.6979 18.3634C16.825 18.4037 17.0028 18.4541 17.203 18.4933C17.4014 18.5321 17.6346 18.5623 17.8693 18.5556C18.0999 18.549 18.367 18.5059 18.606 18.3679C18.845 18.2299 19.0159 18.0202 19.1369 17.8237C19.26 17.6239 19.3504 17.4069 19.416 17.2156C19.4823 17.0226 19.5274 16.8435 19.5561 16.7132C19.5705 16.6476 19.581 16.5934 19.588 16.5547C19.5915 16.5353 19.5941 16.5198 19.5959 16.5085L19.5981 16.495L19.5988 16.4907L19.599 16.4893L19.5991 16.4887C19.5991 16.4886 19.5992 16.4883 19.1285 16.4177ZM19.1285 16.4177L19.5991 16.4887C19.6319 16.2695 19.5089 16.056 19.3026 15.9748L19.1285 16.4177Z" fill="#006600"/>
<path fill-rule="evenodd" clip-rule="evenodd" d="M13.8857 16.7416C13.9008 16.7945 13.9181 16.8501 13.9375 16.9067C13.9895 17.0581 14.0529 17.2047 14.1268 17.3246C14.2028 17.4479 14.272 17.5142 14.3232 17.5437C14.3743 17.5732 14.4664 17.6001 14.6112 17.6042C14.752 17.6082 14.9106 17.5899 15.0677 17.5592C15.1264 17.5477 15.1832 17.5349 15.2366 17.5215C15.2214 17.4686 15.2042 17.413 15.1848 17.3565C15.1328 17.205 15.0694 17.0585 14.9955 16.9386C14.9195 16.8152 14.8502 16.749 14.7991 16.7194C14.7479 16.6899 14.6559 16.6631 14.5111 16.6589C14.3703 16.6549 14.2117 16.6732 14.0546 16.7039C13.9958 16.7154 13.9391 16.7282 13.8857 16.7416ZM15.7975 17.8454C16.2682 17.7749 16.2681 17.7748 16.2681 17.7747L16.268 17.7739L16.2678 17.7724L16.2671 17.7682L16.2649 17.7546C16.2631 17.7434 16.2605 17.7278 16.2569 17.7085C16.2499 17.6697 16.2395 17.6155 16.225 17.55C16.1964 17.4197 16.1512 17.2405 16.085 17.0475C16.0194 16.8563 15.929 16.6393 15.8058 16.4394C15.6848 16.2429 15.5139 16.0332 15.275 15.8952C15.036 15.7572 14.7689 15.7141 14.5382 15.7075C14.3036 15.7009 14.0704 15.7311 13.872 15.7699C13.6718 15.809 13.494 15.8594 13.3669 15.8997C13.3029 15.9201 13.2507 15.9381 13.2137 15.9514C13.1951 15.9581 13.1803 15.9636 13.1697 15.9676L13.1569 15.9725L13.1529 15.974L13.1515 15.9745L13.1509 15.9747C13.1508 15.9748 13.1505 15.9749 13.3247 16.4177L13.1509 15.9747C12.9446 16.0559 12.8213 16.269 12.8541 16.4883L13.3247 16.4177C12.8541 16.4883 12.8541 16.4881 12.8541 16.4883L12.8543 16.4893L12.8545 16.4907L12.8551 16.495L12.8573 16.5085C12.8592 16.5198 12.8619 16.5353 12.8653 16.5547C12.8723 16.5934 12.8828 16.6476 12.8972 16.7132C12.9259 16.8435 12.9711 17.0226 13.0373 17.2156C13.1029 17.4068 13.1933 17.6239 13.3165 17.8237C13.4374 18.0202 13.6083 18.2299 13.8473 18.3679C14.0863 18.5059 14.3534 18.549 14.5841 18.5556C14.8187 18.5623 15.0519 18.5321 15.2503 18.4933C15.4506 18.4541 15.6283 18.4037 15.7554 18.3634C15.8194 18.3431 15.8716 18.325 15.9086 18.3117C15.9271 18.3051 15.9419 18.2996 15.9526 18.2956L15.9655 18.2907L15.9695 18.2891L15.9708 18.2886L15.9714 18.2884C15.9715 18.2883 15.9718 18.2882 15.7975 17.8454ZM15.7975 17.8454L15.9714 18.2884C16.1777 18.2072 16.301 17.9939 16.2681 17.7747L15.7975 17.8454Z" fill="#006600"/>
<path fill-rule="evenodd" clip-rule="evenodd" d="M17.2167 14.1903C17.2701 14.2037 17.3269 14.2165 17.3856 14.228C17.5427 14.2587 17.7013 14.277 17.8421 14.273C17.9869 14.2689 18.0789 14.242 18.1301 14.2125C18.1812 14.183 18.2505 14.1167 18.3265 13.9934C18.4004 13.8734 18.4638 13.7269 18.5158 13.5754C18.5352 13.5189 18.5524 13.4633 18.5676 13.4104C18.5142 13.397 18.4575 13.3842 18.3987 13.3727C18.2416 13.342 18.083 13.3237 17.9422 13.3277C17.7974 13.3318 17.7054 13.3587 17.6542 13.3882C17.6031 13.4178 17.5338 13.484 17.4578 13.6074C17.384 13.7273 17.3205 13.8738 17.2686 14.0252C17.2491 14.0818 17.2319 14.1374 17.2167 14.1903ZM19.1285 13.0865C19.3028 12.6437 19.3027 12.6437 19.3026 12.6436L19.3019 12.6433L19.3005 12.6428L19.2965 12.6412L19.2836 12.6363C19.273 12.6323 19.2582 12.6269 19.2397 12.6202C19.2026 12.6069 19.1504 12.5888 19.0864 12.5685C18.9593 12.5282 18.7816 12.4778 18.5813 12.4387C18.3829 12.3999 18.1497 12.3697 17.9151 12.3763C17.6844 12.3829 17.4173 12.426 17.1783 12.564C16.9393 12.702 16.7685 12.9117 16.6475 13.1082C16.5243 13.308 16.4339 13.5251 16.3683 13.7163C16.3021 13.9093 16.2569 14.0885 16.2282 14.2187C16.2138 14.2843 16.2033 14.3385 16.1963 14.3773C16.1929 14.3966 16.1902 14.4122 16.1884 14.4234L16.1862 14.437L16.1855 14.4412L16.1853 14.4427L16.1852 14.4432C16.1852 14.4434 16.1852 14.4437 16.6558 14.5142L16.1852 14.4432C16.1524 14.6625 16.2752 14.8758 16.4815 14.957L16.6558 14.5142C16.4815 14.957 16.4814 14.957 16.4815 14.957L16.4825 14.9574L16.4839 14.9579L16.4879 14.9595L16.5007 14.9644C16.5113 14.9684 16.5261 14.9739 16.5447 14.9805C16.5817 14.9938 16.6339 15.0119 16.6979 15.0322C16.825 15.0725 17.0028 15.1229 17.203 15.1621C17.4014 15.2009 17.6346 15.2311 17.8693 15.2244C18.0999 15.2178 18.367 15.1747 18.606 15.0367C18.845 14.8987 19.0159 14.689 19.1369 14.4925C19.26 14.2926 19.3504 14.0756 19.416 13.8844C19.4823 13.6914 19.5274 13.5122 19.5561 13.382C19.5705 13.3164 19.581 13.2622 19.588 13.2235C19.5915 13.2041 19.5941 13.1886 19.5959 13.1773L19.5981 13.1638L19.5988 13.1595L19.599 13.1581L19.5991 13.1575C19.5991 13.1574 19.5992 13.1571 19.1285 13.0865ZM19.1285 13.0865L19.5991 13.1575C19.6319 12.9382 19.5089 12.7248 19.3026 12.6436L19.1285 13.0865Z" fill="#006600"/>
<path fill-rule="evenodd" clip-rule="evenodd" d="M16.1801 7.91821C16.2183 7.87857 16.2578 7.83588 16.2972 7.79077C16.4023 7.67004 16.4975 7.54184 16.5644 7.41792C16.6332 7.29043 16.656 7.1973 16.656 7.13824C16.656 7.07918 16.6332 6.98605 16.5644 6.85857C16.4975 6.73465 16.4023 6.60644 16.2972 6.48571C16.2578 6.4406 16.2183 6.39791 16.1801 6.35827C16.1418 6.39791 16.1023 6.4406 16.063 6.48571C15.9579 6.60644 15.8627 6.73465 15.7958 6.85857C15.727 6.98605 15.7042 7.07918 15.7042 7.13824C15.7042 7.1973 15.727 7.29043 15.7958 7.41792C15.8627 7.54184 15.9579 7.67004 16.063 7.79077C16.1023 7.83588 16.1418 7.87857 16.1801 7.91821ZM16.1801 5.7106C15.8837 5.33827 15.8837 5.33832 15.8836 5.33841L15.8829 5.33889L15.8818 5.33984L15.8784 5.3425L15.8678 5.35116C15.859 5.3584 15.8468 5.36849 15.8318 5.38119C15.8018 5.4066 15.76 5.44277 15.7104 5.48808C15.612 5.57802 15.4794 5.70669 15.3454 5.86055C15.2126 6.01302 15.0699 6.1998 14.9583 6.40638C14.8487 6.60939 14.7524 6.86228 14.7524 7.13824C14.7524 7.4142 14.8487 7.66709 14.9583 7.8701C15.0699 8.07668 15.2126 8.26346 15.3454 8.41593C15.4794 8.56979 15.612 8.69846 15.7104 8.78841C15.76 8.83371 15.8018 8.86988 15.8318 8.89529C15.8468 8.908 15.859 8.91808 15.8678 8.92532L15.8784 8.93398L15.8818 8.93664L15.8829 8.93759L15.8834 8.93793C15.8835 8.93798 15.8837 8.93821 16.1801 8.56588L15.8834 8.93793C16.0568 9.07598 16.303 9.07627 16.4765 8.93821L16.1801 8.56588C16.4765 8.93821 16.4764 8.93826 16.4765 8.93821L16.4773 8.93759L16.4784 8.93664L16.4817 8.93398L16.4924 8.92532C16.5012 8.91808 16.5133 8.908 16.5284 8.89529C16.5584 8.86988 16.6001 8.83371 16.6497 8.78841C16.7482 8.69846 16.8808 8.56979 17.0148 8.41593C17.1476 8.26346 17.2903 8.07668 17.4019 7.8701C17.5115 7.66709 17.6077 7.4142 17.6077 7.13824C17.6077 6.86228 17.5115 6.60939 17.4019 6.40638C17.2903 6.1998 17.1476 6.01302 17.0148 5.86055C16.8808 5.70669 16.7482 5.57802 16.6497 5.48808C16.6001 5.44277 16.5584 5.4066 16.5284 5.38119C16.5133 5.36849 16.5012 5.3584 16.4924 5.35116L16.4817 5.3425L16.4784 5.33984L16.4773 5.33889L16.4768 5.33855C16.4767 5.33851 16.4765 5.33827 16.1801 5.7106ZM16.1801 5.7106L16.4768 5.33855C16.3033 5.2005 16.057 5.20031 15.8836 5.33841L16.1801 5.7106Z" fill="#006600"/>
<path fill-rule="evenodd" clip-rule="evenodd" d="M13.8857 13.4104C13.9008 13.4633 13.9181 13.5189 13.9375 13.5754C13.9895 13.7269 14.0529 13.8734 14.1268 13.9934C14.2028 14.1167 14.272 14.183 14.3232 14.2125C14.3743 14.242 14.4664 14.2689 14.6112 14.273C14.752 14.277 14.9106 14.2587 15.0677 14.228C15.1264 14.2165 15.1832 14.2037 15.2366 14.1903C15.2214 14.1374 15.2042 14.0818 15.1848 14.0252C15.1328 13.8738 15.0694 13.7273 14.9955 13.6074C14.9195 13.484 14.8502 13.4178 14.7991 13.3882C14.7479 13.3587 14.6559 13.3318 14.5111 13.3277C14.3703 13.3237 14.2117 13.342 14.0546 13.3727C13.9958 13.3842 13.9391 13.397 13.8857 13.4104ZM15.7975 14.5142C16.2682 14.4437 16.2681 14.4436 16.2681 14.4435L16.268 14.4427L16.2678 14.4412L16.2671 14.437L16.2649 14.4234C16.2631 14.4122 16.2605 14.3966 16.2569 14.3773C16.2499 14.3385 16.2395 14.2843 16.225 14.2187C16.1964 14.0885 16.1512 13.9093 16.085 13.7163C16.0194 13.5251 15.929 13.308 15.8058 13.1082C15.6848 12.9117 15.5139 12.702 15.275 12.564C15.036 12.426 14.7689 12.3829 14.5382 12.3763C14.3036 12.3697 14.0704 12.3999 13.872 12.4387C13.6718 12.4778 13.494 12.5282 13.3669 12.5685C13.3029 12.5888 13.2507 12.6069 13.2137 12.6202C13.1951 12.6269 13.1803 12.6323 13.1697 12.6363L13.1569 12.6412L13.1529 12.6428L13.1515 12.6433L13.1509 12.6435C13.1508 12.6436 13.1505 12.6437 13.3247 13.0865L13.1509 12.6435C12.9446 12.7247 12.8213 12.9378 12.8541 13.1571L13.3247 13.0865C12.8541 13.1571 12.8541 13.1569 12.8541 13.1571L12.8543 13.1581L12.8545 13.1595L12.8551 13.1638L12.8573 13.1773C12.8592 13.1886 12.8619 13.2041 12.8653 13.2235C12.8723 13.2622 12.8828 13.3164 12.8972 13.382C12.9259 13.5122 12.9711 13.6914 13.0373 13.8844C13.1029 14.0756 13.1933 14.2926 13.3165 14.4925C13.4374 14.689 13.6083 14.8987 13.8473 15.0367C14.0863 15.1747 14.3534 15.2178 14.5841 15.2244C14.8187 15.2311 15.0519 15.2009 15.2503 15.1621C15.4506 15.1229 15.6283 15.0725 15.7554 15.0322C15.8194 15.0119 15.8716 14.9938 15.9086 14.9805C15.9271 14.9739 15.9419 14.9684 15.9526 14.9644L15.9655 14.9595L15.9695 14.9579L15.9708 14.9574L15.9714 14.9572C15.9715 14.9571 15.9718 14.957 15.7975 14.5142ZM15.7975 14.5142L15.9714 14.9572C16.1777 14.876 16.301 14.6627 16.2681 14.4435L15.7975 14.5142Z" fill="#006600"/>
<path fill-rule="evenodd" clip-rule="evenodd" d="M17.2167 10.8591C17.2701 10.8724 17.3269 10.8853 17.3856 10.8968C17.5427 10.9275 17.7013 10.9458 17.8421 10.9418C17.9869 10.9377 18.0789 10.9108 18.1301 10.8813C18.1812 10.8517 18.2505 10.7855 18.3265 10.6622C18.4004 10.5422 18.4638 10.3957 18.5158 10.2442C18.5352 10.1877 18.5524 10.1321 18.5676 10.0792C18.5142 10.0658 18.4575 10.053 18.3987 10.0415C18.2416 10.0108 18.083 9.9925 17.9422 9.9965C17.7974 10.0006 17.7054 10.0275 17.6542 10.057C17.6031 10.0866 17.5338 10.1528 17.4578 10.2762C17.384 10.3961 17.3205 10.5426 17.2686 10.694C17.2491 10.7506 17.2319 10.8062 17.2167 10.8591ZM19.1285 9.75532C19.3028 9.31251 19.3027 9.31246 19.3026 9.31242L19.3019 9.31213L19.3005 9.31161L19.2965 9.31004L19.2836 9.30514C19.273 9.30114 19.2582 9.29566 19.2397 9.289C19.2026 9.27568 19.1504 9.25764 19.0864 9.23732C18.9593 9.19702 18.7816 9.14657 18.5813 9.10745C18.3829 9.06867 18.1497 9.03845 17.9151 9.04511C17.6844 9.05173 17.4173 9.0948 17.1783 9.2328C16.9393 9.37076 16.7685 9.58053 16.6475 9.77697C16.5243 9.97684 16.4339 10.1939 16.3683 10.3851C16.3021 10.5781 16.2569 10.7573 16.2282 10.8875C16.2138 10.9531 16.2033 11.0073 16.1963 11.0461C16.1929 11.0654 16.1902 11.081 16.1884 11.0922L16.1862 11.1058L16.1855 11.11L16.1853 11.1115L16.1852 11.112C16.1852 11.1122 16.1852 11.1125 16.6558 11.183L16.1852 11.112C16.1524 11.3313 16.2752 11.5446 16.4815 11.6258L16.6558 11.183C16.4815 11.6258 16.4814 11.6258 16.4815 11.6258L16.4825 11.6262L16.4839 11.6267L16.4879 11.6282L16.5007 11.6331C16.5113 11.6372 16.5261 11.6427 16.5447 11.6493C16.5817 11.6626 16.6339 11.6807 16.6979 11.701C16.825 11.7413 17.0028 11.7917 17.203 11.8309C17.4014 11.8697 17.6346 11.8999 17.8693 11.8932C18.0999 11.8866 18.367 11.8435 18.606 11.7055C18.845 11.5675 19.0159 11.3578 19.1369 11.1613C19.26 10.9614 19.3504 10.7444 19.416 10.5532C19.4823 10.3602 19.5274 10.181 19.5561 10.0508C19.5705 9.98522 19.581 9.93101 19.588 9.89228C19.5915 9.87291 19.5941 9.85735 19.5959 9.84612L19.5981 9.83255L19.5988 9.82832L19.599 9.82684L19.5991 9.82627C19.5991 9.82618 19.5992 9.82584 19.1285 9.75532ZM19.1285 9.75532L19.5991 9.82627C19.6319 9.60703 19.5089 9.3936 19.3026 9.31242L19.1285 9.75532Z" fill="#006600"/>
<path fill-rule="evenodd" clip-rule="evenodd" d="M13.8857 10.0792C13.9008 10.1321 13.9181 10.1877 13.9375 10.2442C13.9895 10.3957 14.0529 10.5422 14.1268 10.6622C14.2028 10.7855 14.272 10.8517 14.3232 10.8813C14.3743 10.9108 14.4664 10.9377 14.6112 10.9418C14.752 10.9458 14.9106 10.9275 15.0677 10.8968C15.1264 10.8853 15.1832 10.8724 15.2366 10.8591C15.2214 10.8062 15.2042 10.7506 15.1848 10.694C15.1328 10.5426 15.0694 10.3961 14.9955 10.2762C14.9195 10.1528 14.8502 10.0866 14.7991 10.057C14.7479 10.0275 14.6559 10.0006 14.5111 9.9965C14.3703 9.9925 14.2117 10.0108 14.0546 10.0415C13.9958 10.053 13.9391 10.0658 13.8857 10.0792ZM15.7975 11.183C16.2682 11.1125 16.2681 11.1124 16.2681 11.1122L16.268 11.1115L16.2678 11.11L16.2671 11.1058L16.2649 11.0922C16.2631 11.081 16.2605 11.0654 16.2569 11.0461C16.2499 11.0073 16.2395 10.9531 16.225 10.8875C16.1964 10.7573 16.1512 10.5781 16.085 10.3851C16.0194 10.1939 15.929 9.97684 15.8058 9.77697C15.6848 9.58053 15.5139 9.37076 15.275 9.2328C15.036 9.0948 14.7689 9.05168 14.5382 9.04511C14.3036 9.03845 14.0704 9.06867 13.872 9.10745C13.6718 9.14657 13.494 9.19702 13.3669 9.23732C13.3029 9.25764 13.2507 9.27568 13.2137 9.289C13.1951 9.29566 13.1803 9.30114 13.1697 9.30514L13.1569 9.31004L13.1529 9.31161L13.1515 9.31213L13.1509 9.31232C13.1508 9.31237 13.1505 9.31251 13.3247 9.75532L13.1509 9.31232C12.9446 9.39351 12.8213 9.60656 12.8541 9.82584L13.3247 9.75532C12.8541 9.82584 12.8541 9.8257 12.8541 9.82584L12.8543 9.82684L12.8545 9.82832L12.8551 9.83255L12.8573 9.84612C12.8592 9.85735 12.8619 9.87291 12.8653 9.89228C12.8723 9.93101 12.8828 9.98522 12.8972 10.0508C12.9259 10.181 12.9711 10.3602 13.0373 10.5532C13.1029 10.7444 13.1933 10.9614 13.3165 11.1613C13.4374 11.3578 13.6083 11.5675 13.8473 11.7055C14.0863 11.8435 14.3534 11.8866 14.5841 11.8932C14.8187 11.8999 15.0519 11.8697 15.2503 11.8309C15.4506 11.7917 15.6283 11.7413 15.7554 11.701C15.8194 11.6807 15.8716 11.6626 15.9086 11.6493C15.9271 11.6427 15.9419 11.6372 15.9526 11.6331L15.9655 11.6282L15.9695 11.6267L15.9708 11.6262L15.9714 11.626C15.9715 11.6259 15.9718 11.6258 15.7975 11.183ZM15.7975 11.183L15.9714 11.626C16.1777 11.5448 16.301 11.3315 16.2681 11.1122L15.7975 11.183Z" fill="#006600"/>
</svg>
