<svg width="20" height="20" viewBox="0 0 20 20" fill="none" xmlns="http://www.w3.org/2000/svg">
<g clip-path="url(#clip0_13_7372)">
<path d="M3.5 5C2.94771 5 2.5 5.44771 2.5 6C2.5 6.55228 2.94771 7 3.5 7V5ZM18.5 7C19.0523 7 19.5 6.55228 19.5 6C19.5 5.44771 19.0523 5 18.5 5V7ZM3.5 7H5.16667V5H3.5V7ZM5.16667 7H18.5V5H5.16667V7Z" fill="#EB5757"/>
<path d="M16.8334 5.99996H17.8334C17.8334 5.44768 17.3857 4.99996 16.8334 4.99996V5.99996ZM16.3452 18.8451L17.0523 19.5522L16.3452 18.8451ZM5.6549 18.8451L4.9478 19.5522L5.6549 18.8451ZM5.16675 17.6666H4.16675H5.16675ZM5.16675 5.99996V4.99996C4.61446 4.99996 4.16675 5.44768 4.16675 5.99996H5.16675ZM6.66675 5.99996C6.66675 6.55225 7.11447 6.99996 7.66675 6.99996C8.21903 6.99996 8.66675 6.55225 8.66675 5.99996H6.66675ZM9.33342 2.66663V1.66663V2.66663ZM12.6667 2.66663V1.66663V2.66663ZM13.3334 5.99996C13.3334 6.55225 13.7811 6.99996 14.3334 6.99996C14.8857 6.99996 15.3334 6.55225 15.3334 5.99996H13.3334ZM15.8334 5.99996V17.6666H17.8334V5.99996H15.8334ZM15.8334 17.6666C15.8334 17.8434 15.7631 18.013 15.6381 18.138L17.0523 19.5522C17.5524 19.0521 17.8334 18.3738 17.8334 17.6666H15.8334ZM15.6381 18.138C15.5131 18.263 15.3435 18.3333 15.1667 18.3333V20.3333C15.8739 20.3333 16.5522 20.0523 17.0523 19.5522L15.6381 18.138ZM15.1667 18.3333H6.83342V20.3333H15.1667V18.3333ZM6.83342 18.3333C6.65661 18.3333 6.48704 18.263 6.36201 18.138L4.9478 19.5522C5.44789 20.0523 6.12617 20.3333 6.83342 20.3333V18.3333ZM6.36201 18.138C6.23699 18.013 6.16675 17.8434 6.16675 17.6666H4.16675C4.16675 18.3738 4.4477 19.0521 4.9478 19.5522L6.36201 18.138ZM6.16675 17.6666V5.99996H4.16675V17.6666H6.16675ZM5.16675 6.99996H16.8334V4.99996H5.16675V6.99996ZM8.66675 5.99996V4.3333H6.66675V5.99996H8.66675ZM8.66675 4.3333C8.66675 4.15649 8.73699 3.98692 8.86201 3.86189L7.4478 2.44767C6.9477 2.94777 6.66675 3.62605 6.66675 4.3333H8.66675ZM8.86201 3.86189C8.98704 3.73687 9.15661 3.66663 9.33342 3.66663V1.66663C8.62617 1.66663 7.9479 1.94758 7.4478 2.44767L8.86201 3.86189ZM9.33342 3.66663H12.6667V1.66663H9.33342V3.66663ZM12.6667 3.66663C12.8436 3.66663 13.0131 3.73687 13.1381 3.86189L14.5524 2.44767C14.0523 1.94758 13.374 1.66663 12.6667 1.66663V3.66663ZM13.1381 3.86189C13.2632 3.98692 13.3334 4.15649 13.3334 4.3333H15.3334C15.3334 3.62605 15.0525 2.94777 14.5524 2.44767L13.1381 3.86189ZM13.3334 4.3333V5.99996H15.3334V4.3333H13.3334Z" fill="#EB5757"/>
<path d="M10.3333 10.1666C10.3333 9.61434 9.88554 9.16663 9.33325 9.16663C8.78097 9.16663 8.33325 9.61434 8.33325 10.1666H10.3333ZM8.33325 15.1666C8.33325 15.7189 8.78097 16.1666 9.33325 16.1666C9.88554 16.1666 10.3333 15.7189 10.3333 15.1666H8.33325ZM8.33325 10.1666V15.1666H10.3333V10.1666H8.33325Z" fill="#EB5757"/>
<path d="M13.6667 10.1666C13.6667 9.61434 13.219 9.16663 12.6667 9.16663C12.1145 9.16663 11.6667 9.61434 11.6667 10.1666H13.6667ZM11.6667 15.1666C11.6667 15.7189 12.1145 16.1666 12.6667 16.1666C13.219 16.1666 13.6667 15.7189 13.6667 15.1666H11.6667ZM11.6667 10.1666V15.1666H13.6667V10.1666H11.6667Z" fill="#EB5757"/>
</g>
<defs>
<clipPath id="clip0_13_7372">
<rect width="20" height="20" fill="white"/>
</clipPath>
</defs>
</svg>
