<svg width="30" height="40" viewBox="0 0 30 40" fill="none" xmlns="http://www.w3.org/2000/svg">
<path d="M15 0C6.70714 0 0 6.26 0 14C0 17.48 1.07143 20.74 3.02143 23.68C5.05714 26.76 7.73571 29.4 9.79286 32.48C10.8 33.98 11.5286 35.38 12.3 37C12.8571 38.1 13.3071 40 15 40C16.6929 40 17.1429 38.1 17.6786 37C18.4714 35.38 19.1786 33.98 20.1857 32.48C22.2429 29.42 24.9214 26.78 26.9571 23.68C28.9286 20.74 30 17.48 30 14C30 6.26 23.2929 0 15 0ZM15 19.5C12.0429 19.5 9.64286 17.26 9.64286 14.5C9.64286 11.74 12.0429 9.5 15 9.5C17.9571 9.5 20.3571 11.74 20.3571 14.5C20.3571 17.26 17.9571 19.5 15 19.5Z" fill="#006600"/>
</svg>
