<svg width="17" height="17" viewBox="0 0 17 17" fill="none" xmlns="http://www.w3.org/2000/svg">
<path d="M15.6809 16.7736C15.9827 17.0754 16.4719 17.0754 16.7736 16.7736C17.0754 16.4719 17.0754 15.9827 16.7736 15.6809L15.6809 16.7736ZM13.0388 11.9461C12.737 11.6443 12.2478 11.6443 11.9461 11.9461C11.6443 12.2478 11.6443 12.737 11.9461 13.0388L13.0388 11.9461ZM13.7373 7.64142C13.7373 11.0081 11.0081 13.7373 7.64142 13.7373V15.2828C11.8617 15.2828 15.2828 11.8617 15.2828 7.64142H13.7373ZM7.64142 13.7373C4.27471 13.7373 1.54545 11.0081 1.54545 7.64142H0C0 11.8617 3.42117 15.2828 7.64142 15.2828V13.7373ZM1.54545 7.64142C1.54545 4.27471 4.27471 1.54545 7.64142 1.54545V0C3.42117 0 0 3.42117 0 7.64142H1.54545ZM7.64142 1.54545C11.0081 1.54545 13.7373 4.27471 13.7373 7.64142H15.2828C15.2828 3.42117 11.8617 0 7.64142 0V1.54545ZM16.7736 15.6809L13.0388 11.9461L11.9461 13.0388L15.6809 16.7736L16.7736 15.6809Z" fill="#222326"/>
</svg>
