<svg width="179" height="200" viewBox="0 0 179 200" fill="none" xmlns="http://www.w3.org/2000/svg">
<path d="M51.0619 44.6619C49.6918 45.1849 48.2926 45.6282 46.8715 45.9896C44.9943 46.4479 43.9344 46.6604 42.1225 45.9559C42.0589 45.9312 41.9982 45.9067 41.9409 45.8827C38.5066 44.4197 35.5708 41.9883 33.491 38.8842C31.4112 35.7802 30.277 32.1373 30.2264 28.3991C30.2174 28.2709 30.2174 28.1361 30.2174 28.0045C30.2156 27.371 30.2458 26.7377 30.3079 26.1073C30.3873 25.2484 30.5245 24.3959 30.7184 23.5555L30.7003 23.5522C29.2334 22.0495 28.669 19.9911 28.8561 17.9228C28.9843 16.5206 29.4285 15.1658 30.1553 13.9606C30.882 12.7553 31.8724 11.731 33.0517 10.9649C34.8998 9.80083 36.9837 9.06395 39.1519 8.80784C39.734 8.74059 40.3195 8.70655 40.9056 8.7059H46.4111C47.5482 8.4392 48.7033 8.25676 49.8672 8.16005H49.8762C60.9568 7.23935 69.695 14.5984 68.8801 23.5522C68.874 23.5621 68.865 23.5719 68.8589 23.5818C68.6235 23.9665 68.4152 24.3315 68.2311 24.6802C68.053 25.0057 67.9021 25.3181 67.7723 25.614C66.7612 27.9026 71.5664 63.4102 69.8429 63.9495C68.8619 64.2553 64.9079 37.833 65.6172 42.8574C66.5106 49.161 56.1668 42.7715 51.0619 44.6619Z" fill="#2F2E41"/>
<path d="M67.7544 108.85L83.1142 141.631L24.0284 135.636L36.3623 104.167L67.7544 108.85Z" fill="#FFB6B6"/>
<path d="M98.588 174.575C88.3134 178.001 77.4855 179.454 66.673 178.857L61.9711 171.218C61.9711 171.218 61.7743 174.063 61.4806 178.413C56.3336 177.815 51.2537 176.736 46.3074 175.19C36.927 172.251 28.1341 167.698 19.221 163.499C17.4157 152.718 16.7383 136.094 26.7192 126.416L80.4414 136.277C80.4414 136.277 89.0609 142.736 86.755 145.05C84.4491 147.36 84.092 147.002 85.607 148.52C87.1221 150.037 90.3957 152.066 90.4291 153.394C90.4424 153.912 94.1164 163.309 98.588 174.575Z" fill="#2F2E41"/>
<path d="M58.3731 45.5041L45.3941 46.4113L37.0051 54.5321L34.0671 55.0575C31.4263 55.5292 29.05 56.9553 27.3889 59.0655C25.7278 61.1756 24.8975 63.823 25.0552 66.5057C25.6596 76.7629 27.0126 92.0889 29.8407 97.0612C34.2259 104.771 37.848 102.352 34.2259 104.771C30.6038 107.19 28.1721 105.29 29.8407 109.113C31.5094 112.936 27.5854 117.839 27.5854 117.839L26.0234 119.404L27.6801 120.084L80.4701 126.966C80.4701 126.966 75.9055 106.406 78.7602 101.355C81.6148 96.3045 88.5363 81.0375 82.3589 75.0638L76.3191 53.7709L65.9298 50.7012L58.3731 45.5041Z" fill="#8982FF"/>
<path d="M136.941 129.889C136.073 129.861 135.22 129.645 134.443 129.255C133.667 128.865 132.983 128.31 132.441 127.63C131.899 126.949 131.511 126.159 131.304 125.313C131.097 124.468 131.076 123.587 131.242 122.733L106.479 105.932L109.434 97.9282L138.699 118.098C140.114 118.485 141.338 119.378 142.14 120.609C142.942 121.839 143.265 123.322 143.048 124.775C142.831 126.229 142.09 127.552 140.964 128.494C139.839 129.437 138.407 129.933 136.941 129.889Z" fill="#FFB6B6"/>
<path d="M66.999 52.7658L63.4007 54.1931L82.5956 91.7495L122.332 118.884L128.06 109.186L97.8122 83.0118L85.7023 59.7451C83.9981 56.4708 81.1432 53.9452 77.6889 52.6563C74.2347 51.3673 70.4262 51.4063 66.999 52.7658Z" fill="#8982FF"/>
<path d="M51.2079 42.2006C58.4057 42.2006 64.2407 36.3551 64.2407 29.1443C64.2407 21.9335 58.4057 16.088 51.2079 16.088C44.01 16.088 38.175 21.9335 38.175 29.1443C38.175 36.3551 44.01 42.2006 51.2079 42.2006Z" fill="#FFB6B6"/>
<path d="M62.5408 23.6232C62.3234 23.7381 62.1091 23.8439 61.8918 23.9497C61.6654 24.0586 61.439 24.1675 61.2097 24.2703C56.848 26.2508 53.2953 26.4716 51.1402 23.6232C51.0812 22.1246 50.7445 20.65 50.1472 19.2749C50.2527 20.8116 49.8484 22.3404 48.9972 23.6232H44.6567C40.1865 26.5956 37.8925 29.3261 40.9954 39.0839C41.1976 39.725 42.5831 62.5005 42.9785 64.2514C36.2112 61.6508 30.3736 34.0402 30.2257 26.7649C30.2167 26.647 30.2167 26.523 30.2167 26.402C30.2149 25.8192 30.2451 25.2368 30.3072 24.6573C30.3869 23.8662 30.5241 23.0819 30.7177 22.3108L30.6996 22.3078C30.0111 21.6484 29.4858 20.8369 29.1656 19.9381C28.8454 19.0394 28.7392 18.0781 28.8554 17.1309C29.9906 15.6419 31.3955 14.3801 32.9966 13.4116C34.4525 12.7054 35.9701 12.1345 37.5302 11.7062C37.5695 11.6971 37.6027 11.6881 37.6419 11.679C38.1188 11.549 38.6078 11.431 39.0968 11.3282C40.1045 11.1165 41.1233 10.9621 42.1484 10.8656C42.2239 10.8626 42.2963 10.8565 42.3627 10.8565C42.7728 10.8568 43.1752 10.9675 43.5278 11.177C43.5309 11.177 43.5309 11.1801 43.5369 11.1801C43.8757 11.3829 44.1568 11.6697 44.3529 12.0129C44.549 12.3561 44.6536 12.744 44.6567 13.1395H49.4922C49.6702 13.1395 49.8483 13.1455 50.0264 13.1546C56.7604 13.4237 62.1725 16.3085 62.5196 22.9398C62.5347 23.1696 62.5408 23.3934 62.5408 23.6232Z" fill="#2F2E41"/>
<path d="M33.9534 24.1485C38.6955 24.1485 42.5396 20.2974 42.5396 15.5469C42.5396 10.7964 38.6955 6.94535 33.9534 6.94535C29.2115 6.94535 25.3673 10.7964 25.3673 15.5469C25.3673 20.2974 29.2115 24.1485 33.9534 24.1485Z" fill="#2F2E41"/>
<path d="M45.7411 11.5683C44.7656 16.2172 39.9531 18.9976 35.349 17.8602C33.138 17.3141 31.2342 15.9104 30.0563 13.958C28.8785 12.0056 28.523 9.66435 29.0682 7.44941C30.2036 2.83705 35.7912 4.16675 39.4604 1.1574C44.6509 -3.09976 47.0566 5.29877 45.7411 11.5683Z" fill="#2F2E41"/>
<path d="M26.6636 140.976C33.9814 111.081 48.4809 85.3851 72.494 65.2528C73.4234 63.7213 74.9212 62.6215 76.659 62.1949C78.3967 61.7682 80.2324 62.0495 81.7633 62.9771L138.849 97.6515C140.377 98.5825 141.475 100.083 141.901 101.824C142.327 103.565 142.046 105.404 141.12 106.937C131.955 137.613 118.227 164.232 95.2899 182.661C94.3605 184.193 92.8627 185.292 91.125 185.719C89.3873 186.146 87.5516 185.864 86.0207 184.937L28.9353 150.262C27.4065 149.331 26.3087 147.831 25.8828 146.09C25.4569 144.349 25.7377 142.51 26.6636 140.976Z" fill="#F2F2F2"/>
<path opacity="0.2" d="M36.81 151.052C35.2811 150.121 34.1833 148.62 33.7574 146.879C33.3316 145.138 33.6124 143.299 34.5382 141.766C41.856 111.87 56.3556 86.1744 80.3687 66.0421C80.9838 65.0396 81.8525 64.2176 82.8866 63.6594L81.7633 62.977C80.2323 62.0495 78.3967 61.7682 76.659 62.1948C74.9212 62.6215 73.4234 63.7212 72.494 65.2527C48.4809 85.385 33.9814 111.081 26.6636 140.976C25.7377 142.51 25.4569 144.349 25.8828 146.09C26.3087 147.831 27.4065 149.331 28.9353 150.262L86.0206 184.937C87.0366 185.549 88.1962 185.882 89.3818 185.901C90.5675 185.919 91.737 185.624 92.7719 185.044L36.81 151.052Z" fill="black"/>
<path d="M103.757 134.349L65.4389 111.22C64.8301 110.851 64.3922 110.255 64.2214 109.564C64.0506 108.872 64.1609 108.141 64.528 107.53C64.8951 106.92 65.489 106.481 66.1792 106.309C66.8695 106.137 67.5997 106.246 68.2094 106.613L106.528 129.743C107.135 130.112 107.572 130.707 107.741 131.398C107.911 132.089 107.801 132.82 107.434 133.429C107.068 134.039 106.475 134.478 105.785 134.65C105.096 134.823 104.367 134.715 103.757 134.349Z" fill="white"/>
<path d="M81.465 103.677L73.035 98.588C72.4241 98.2218 71.9834 97.6276 71.8099 96.9359C71.6363 96.2442 71.7441 95.5118 72.1096 94.8998C72.4751 94.2878 73.0683 93.8463 73.7587 93.6724C74.4491 93.4986 75.1802 93.6066 75.7911 93.9727L75.8056 93.9815L84.2356 99.07C84.8431 99.4392 85.2797 100.035 85.4497 100.726C85.6197 101.417 85.5092 102.147 85.1425 102.757C84.7758 103.367 84.1828 103.806 83.4935 103.978C82.8041 104.151 82.0747 104.042 81.465 103.677Z" fill="white"/>
<path d="M97.6659 144.474L59.3476 121.345C58.7381 120.977 58.2993 120.382 58.1275 119.69C57.9558 118.999 58.0651 118.267 58.4316 117.656C58.798 117.045 59.3916 116.605 60.0818 116.432C60.7721 116.26 61.5025 116.368 62.1127 116.735L62.1181 116.738L100.436 139.868C101.044 140.237 101.48 140.833 101.65 141.524C101.82 142.215 101.709 142.945 101.343 143.555C100.976 144.164 100.383 144.603 99.6941 144.776C99.0048 144.948 98.2755 144.84 97.6658 144.474H97.6659Z" fill="white"/>
<path d="M108.623 90.7371C114.804 90.7371 119.815 85.7172 119.815 79.525C119.815 73.3327 114.804 68.3128 108.623 68.3128C102.442 68.3128 97.4311 73.3327 97.4311 79.525C97.4311 85.7172 102.442 90.7371 108.623 90.7371Z" fill="#3F3D56"/>
<path d="M89.3307 199.667C102.542 199.667 113.252 188.937 113.252 175.702C113.252 162.467 102.542 151.738 89.3307 151.738C76.1194 151.738 65.4095 162.467 65.4095 175.702C65.4095 188.937 76.1194 199.667 89.3307 199.667Z" fill="white"/>
<path d="M89.3304 200C84.5333 200 79.8439 198.575 75.8552 195.905C71.8664 193.235 68.7576 189.44 66.9218 185C65.086 180.56 64.6057 175.675 65.5416 170.961C66.4774 166.248 68.7875 161.918 72.1796 158.52C75.5717 155.122 79.8935 152.808 84.5984 151.87C89.3034 150.932 94.1803 151.414 98.6123 153.253C103.044 155.092 106.832 158.206 109.498 162.202C112.163 166.198 113.585 170.896 113.585 175.702C113.578 182.144 111.02 188.32 106.473 192.875C101.926 197.431 95.7611 199.993 89.3304 200ZM89.3304 152.072C84.6653 152.072 80.1049 153.458 76.2259 156.054C72.347 158.651 69.3237 162.341 67.5384 166.659C65.7531 170.977 65.286 175.728 66.1962 180.312C67.1063 184.895 69.3528 189.106 72.6516 192.411C75.9504 195.715 80.1533 197.966 84.7289 198.878C89.3044 199.789 94.0471 199.321 98.3571 197.533C102.667 195.744 106.351 192.716 108.943 188.83C111.535 184.944 112.918 180.375 112.918 175.702C112.911 169.437 110.424 163.43 106.002 159C101.579 154.571 95.5841 152.079 89.3304 152.072Z" fill="#3F3D56"/>
<path d="M86.0674 188.174C85.6543 188.174 85.2469 188.078 84.8774 187.893C84.508 187.708 84.1866 187.439 83.9389 187.108L77.4128 178.391C77.2028 178.111 77.0499 177.792 76.9629 177.453C76.876 177.113 76.8566 176.76 76.9059 176.413C76.9552 176.067 77.0722 175.733 77.2503 175.432C77.4284 175.13 77.664 174.867 77.9437 174.657C78.2234 174.447 78.5417 174.294 78.8804 174.207C79.2191 174.12 79.5716 174.101 79.9177 174.151C80.2637 174.2 80.5967 174.318 80.8974 174.497C81.1981 174.675 81.4607 174.912 81.6702 175.192L85.9398 180.895L96.9057 164.416C97.0996 164.125 97.3488 163.875 97.6391 163.68C97.9294 163.485 98.2552 163.35 98.5979 163.281C98.9405 163.212 99.2933 163.212 99.6361 163.28C99.9789 163.348 100.305 163.483 100.596 163.677C100.886 163.871 101.136 164.121 101.331 164.412C101.525 164.703 101.661 165.029 101.729 165.372C101.798 165.716 101.798 166.069 101.73 166.412C101.662 166.756 101.528 167.082 101.334 167.374L88.2816 186.987C88.0455 187.342 87.7279 187.635 87.3555 187.841C86.9832 188.048 86.5668 188.162 86.1414 188.173C86.1167 188.174 86.0921 188.174 86.0674 188.174Z" fill="#8982FF"/>
<path d="M166.584 54.2625C167.534 54.1811 168.259 53.5781 168.203 52.9156C168.146 52.2532 167.33 51.7821 166.379 51.8636C165.429 51.945 164.704 52.548 164.76 53.2105C164.817 53.8729 165.633 54.344 166.584 54.2625Z" fill="white"/>
<path d="M177.279 50.6277C178.23 50.5463 178.955 49.9433 178.898 49.2808C178.842 48.6184 178.025 48.1474 177.075 48.2288C176.124 48.3102 175.399 48.9132 175.456 49.5757C175.512 50.2382 176.329 50.7092 177.279 50.6277Z" fill="#3F3D56"/>
<path d="M161.515 46.0877C162.465 46.0063 163.19 45.4032 163.133 44.7408C163.077 44.0783 162.26 43.6073 161.31 43.6887C160.359 43.7701 159.635 44.3732 159.691 45.0356C159.748 45.6981 160.564 46.1691 161.515 46.0877Z" fill="#FF6584"/>
<path d="M157.028 43.4544C157.438 43.3618 157.662 42.8091 157.529 42.2199C157.396 41.6308 156.956 41.2282 156.547 41.3208C156.138 41.4134 155.914 41.9661 156.047 42.5553C156.18 43.1445 156.619 43.547 157.028 43.4544Z" fill="#E6E6E6"/>
<path d="M153.834 37.0598C154.243 36.9672 154.467 36.4145 154.334 35.8254C154.201 35.2362 153.762 34.8336 153.353 34.9262C152.944 35.0188 152.72 35.5715 152.853 36.1607C152.986 36.7499 153.425 37.1525 153.834 37.0598Z" fill="#3F3D56"/>
<path d="M169.159 46.0394C169.568 45.9468 169.792 45.3941 169.66 44.8049C169.527 44.2157 169.087 43.8132 168.678 43.9058C168.269 43.9984 168.045 44.5511 168.178 45.1403C168.311 45.7294 168.75 46.132 169.159 46.0394Z" fill="#E6E6E6"/>
<path d="M164.487 49.9242C164.897 49.8316 165.121 49.2789 164.988 48.6897C164.855 48.1005 164.415 47.6979 164.006 47.7906C163.597 47.8832 163.373 48.4359 163.506 49.025C163.639 49.6142 164.078 50.0168 164.487 49.9242Z" fill="#FF6584"/>
<path d="M172.992 53.0892C173.402 52.9966 173.625 52.4439 173.493 51.8547C173.36 51.2656 172.92 50.863 172.511 50.9556C172.102 51.0482 171.878 51.6009 172.011 52.1901C172.144 52.7793 172.583 53.1818 172.992 53.0892Z" fill="#3F3D56"/>
<path d="M122.428 4.72822C122.591 4.08372 121.973 3.37092 121.049 3.13613C120.124 2.90135 119.242 3.23348 119.079 3.87798C118.916 4.52248 119.533 5.23528 120.458 5.47007C121.383 5.70485 122.265 5.37272 122.428 4.72822Z" fill="white"/>
<path d="M111.134 4.65495C111.297 4.01045 110.679 3.29766 109.755 3.06287C108.83 2.82808 107.948 3.16022 107.785 3.80472C107.622 4.44922 108.239 5.16204 109.164 5.39682C110.089 5.63161 110.971 5.29945 111.134 4.65495Z" fill="#3F3D56"/>
<path d="M124.547 14.115C124.71 13.4705 124.093 12.7577 123.168 12.5229C122.243 12.2881 121.361 12.6202 121.198 13.2647C121.035 13.9092 121.653 14.622 122.577 14.8568C123.502 15.0916 124.384 14.7595 124.547 14.115Z" fill="#FF6584"/>
<path d="M127.18 17.6544C127.247 17.0541 126.964 16.5296 126.547 16.483C126.13 16.4363 125.738 16.8851 125.671 17.4854C125.604 18.0857 125.887 18.6102 126.304 18.6568C126.721 18.7035 127.113 18.2547 127.18 17.6544Z" fill="#E6E6E6"/>
<path d="M128.108 24.7443C128.175 24.144 127.891 23.6195 127.474 23.5729C127.058 23.5262 126.665 23.975 126.598 24.5753C126.531 25.1756 126.815 25.7001 127.232 25.7467C127.649 25.7934 128.041 25.3446 128.108 24.7443Z" fill="#3F3D56"/>
<path d="M116.563 11.2325C116.63 10.6322 116.346 10.1077 115.929 10.0611C115.513 10.0144 115.12 10.4632 115.053 11.0635C114.986 11.6638 115.27 12.1883 115.687 12.2349C116.104 12.2816 116.496 11.8328 116.563 11.2325Z" fill="#E6E6E6"/>
<path d="M122.246 9.09381C122.313 8.49352 122.029 7.96906 121.612 7.9224C121.195 7.87573 120.803 8.32454 120.736 8.92483C120.669 9.52513 120.953 10.0496 121.37 10.0963C121.786 10.1429 122.179 9.69411 122.246 9.09381Z" fill="#FF6584"/>
<path d="M115.244 3.31546C115.311 2.71517 115.027 2.19071 114.61 2.14405C114.193 2.09739 113.801 2.54619 113.734 3.14648C113.667 3.74678 113.951 4.27125 114.368 4.31791C114.784 4.36457 115.177 3.91576 115.244 3.31546Z" fill="#3F3D56"/>
<path d="M30.2231 141.293C29.3701 140.943 28.6033 140.411 27.9755 139.735C27.3478 139.059 26.8742 138.254 26.5875 137.377C26.3008 136.499 26.2078 135.569 26.3149 134.652C26.422 133.735 26.7268 132.852 27.208 132.065L8.81938 106.169L14.7186 99.313L36.3345 130.229C37.5976 131.139 38.4835 132.482 38.8245 134.003C39.1654 135.523 38.9376 137.117 38.1843 138.48C37.431 139.844 36.2045 140.884 34.7372 141.402C33.2699 141.921 31.6637 141.882 30.2231 141.293Z" fill="#FFB6B6"/>
<path d="M30.6456 59.2318C29.7153 58.6834 28.6204 58.4852 27.5574 58.6727C26.4943 58.8602 25.5328 59.4211 24.8454 60.2548L0 95.065L23.0252 127.826L32.0352 118.132L18.0198 96.0679L36.6463 78.3014C38.1769 74.9421 38.4107 71.1338 37.3025 67.6118C36.1943 64.0899 33.8227 61.1044 30.6456 59.2318Z" fill="#8982FF"/>
</svg>
