<svg width="24" height="24" viewBox="0 0 24 24" fill="none" xmlns="http://www.w3.org/2000/svg">
<path fill-rule="evenodd" clip-rule="evenodd" d="M21 21.7144C21 22.4245 20.5956 23.0001 20.0968 23.0001L7.90323 23.0001C7.40437 23.0001 7 22.4245 7 21.7144C7 21.0043 7.40437 20.4287 7.90323 20.4287L20.0968 20.4287C20.5956 20.4287 21 21.0043 21 21.7144Z" fill="#182651"/>
<path fill-rule="evenodd" clip-rule="evenodd" d="M21 13.9996C21 14.7097 20.6518 15.2853 20.2222 15.2853L7.77778 15.2853C7.34821 15.2853 7 14.7097 7 13.9996C7 13.2895 7.34821 12.7139 7.77778 12.7139L20.2222 12.7139C20.6518 12.7139 21 13.2895 21 13.9996Z" fill="#182651"/>
<path fill-rule="evenodd" clip-rule="evenodd" d="M21 6.28571C21 6.99579 20.5956 7.57143 20.0968 7.57143L7.90323 7.57143C7.40437 7.57143 7 6.9958 7 6.28571C7 5.57564 7.40437 5.00001 7.90323 5.00001L20.0968 5C20.5956 5 21 5.57563 21 6.28571Z" fill="#182651"/>
</svg>
