<svg width="12" height="22" viewBox="0 0 12 22" fill="none" xmlns="http://www.w3.org/2000/svg">
<path d="M5.28957 2.81377L7.30941 8.52031L7.70437 9.63622L7.71137 4.82661L7.72137 0.00899921H11.991L11.999 10.8701C12.002 16.8496 11.996 21.7592 11.984 21.7692C11.972 21.7782 11.775 21.7692 11.5481 21.7422C10.5591 21.6242 9.25825 21.5062 8.20833 21.4603C7.9961 21.4523 7.78407 21.4396 7.57238 21.4223C7.56938 21.4183 7.29941 20.6603 6.79645 19.2384V19.2344L4.65262 13.1739L4.31265 12.22L4.30465 16.8056C4.29865 21.1703 4.29465 21.4153 4.24765 21.4153C4.08467 21.4153 2.67778 21.5052 2.20782 21.5512C1.89985 21.5782 1.2819 21.6412 0.837932 21.6962C0.391968 21.7472 0.0219981 21.7812 0.0149987 21.7742C0.00599938 21.7682 0 16.8656 0 10.8821V0.00199981H0.0049997V0H4.29265L4.32065 0.0799935C4.32765 0.0959922 4.38564 0.255979 4.47764 0.516958L5.11858 2.29481L5.29157 2.79077L5.29057 2.81377H5.28957Z" fill="#E50913"/>
</svg>
