<svg width="20" height="20" viewBox="0 0 20 20" fill="none" xmlns="http://www.w3.org/2000/svg">
<path d="M15.75 6.00017V6.75017C16.1642 6.75017 16.5 6.41438 16.5 6.00017H15.75ZM12.425 9.69475H11.675C11.675 10.109 12.0108 10.4447 12.425 10.4447V9.69475ZM15.75 9.69475L16.4913 9.80881C16.5246 9.59253 16.4617 9.3725 16.3192 9.20641C16.1767 9.04032 15.9688 8.94475 15.75 8.94475V9.69475ZM15.2629 12.8602V13.6102C15.6331 13.6102 15.9479 13.3401 16.0042 12.9742L15.2629 12.8602ZM12.4254 12.8602V12.1102C12.0112 12.1102 11.6754 12.4459 11.6754 12.8602H12.4254ZM12.4254 18.6668V19.4168C12.8396 19.4168 13.1754 19.081 13.1754 18.6668H12.4254ZM8.76875 18.6668H8.01875C8.01875 19.081 8.35454 19.4168 8.76875 19.4168V18.6668ZM8.76875 12.8602H9.51875C9.51875 12.4459 9.18296 12.1102 8.76875 12.1102V12.8602ZM5.75 12.8602H5C5 13.2744 5.33579 13.6102 5.75 13.6102V12.8602ZM5.75 9.69475V8.94475C5.33579 8.94475 5 9.28054 5 9.69475H5.75ZM8.72958 9.69475V10.4447C9.13998 10.4447 9.47417 10.1149 9.47952 9.70453L8.72958 9.69475ZM8.76875 6.69058L9.51869 6.70036C9.51876 6.69462 9.51877 6.68888 9.51871 6.68314L8.76875 6.69058ZM8.76333 6.14475L9.5133 6.13731V6.13722L8.76333 6.14475ZM12.0413 2.8335V2.0835H12.0412L12.0413 2.8335ZM15.75 2.8335H16.5C16.5 2.41928 16.1642 2.0835 15.75 2.0835V2.8335ZM15.75 5.25017H13.2446V6.75017H15.75V5.25017ZM13.2446 5.25017C12.3781 5.25017 11.675 5.95237 11.675 6.81975H13.175C13.175 6.78129 13.206 6.75017 13.2446 6.75017V5.25017ZM11.675 6.81975V9.69475H13.175V6.81975H11.675ZM12.425 10.4447H15.75V8.94475H12.425V10.4447ZM15.0087 9.58068L14.5216 12.7461L16.0042 12.9742L16.4913 9.80881L15.0087 9.58068ZM15.2629 12.1102H12.4254V13.6102H15.2629V12.1102ZM11.6754 12.8602V18.6668H13.1754V12.8602H11.6754ZM12.4254 17.9168H8.76875V19.4168H12.4254V17.9168ZM9.51875 18.6668V12.8602H8.01875V18.6668H9.51875ZM8.76875 12.1102H5.75V13.6102H8.76875V12.1102ZM6.5 12.8602V9.69475H5V12.8602H6.5ZM5.75 10.4447H8.72958V8.94475H5.75V10.4447ZM9.47952 9.70453L9.51869 6.70036L8.01881 6.68081L7.97965 9.68497L9.47952 9.70453ZM9.51871 6.68314L9.5133 6.13731L8.01337 6.15219L8.01879 6.69803L9.51871 6.68314ZM9.5133 6.13722C9.50994 5.80309 9.57285 5.47161 9.69839 5.16194L8.30827 4.5984C8.10826 5.09178 8.00803 5.61992 8.01337 6.15228L9.5133 6.13722ZM9.69839 5.16194C9.82393 4.85228 10.0096 4.57057 10.2447 4.3331L9.17867 3.27781C8.80412 3.65617 8.50829 4.10501 8.30827 4.5984L9.69839 5.16194ZM10.2447 4.3331C10.4798 4.09563 10.7596 3.90711 11.068 3.77845L10.4904 2.39411C9.99904 2.5991 9.55321 2.89946 9.17867 3.27781L10.2447 4.3331ZM11.068 3.77845C11.3763 3.64978 11.7072 3.58352 12.0413 3.5835L12.0412 2.0835C11.5088 2.08354 10.9817 2.18911 10.4904 2.39411L11.068 3.77845ZM12.0413 3.5835H15.75V2.0835H12.0413V3.5835ZM15 2.8335V6.00017H16.5V2.8335H15Z" fill="#0061FF"/>
</svg>
