<svg width="40" height="40" viewBox="0 0 40 40" fill="none" xmlns="http://www.w3.org/2000/svg">
<rect width="40" height="40" rx="7" fill="#EDECFF"/>
<path d="M22.3849 16.8215C22.5038 17.1724 22.8784 17.3584 23.2217 17.2369C23.565 17.1154 23.7469 16.7324 23.6281 16.3815L22.3849 16.8215ZM20.3553 14.6724L20.3526 15.3449H20.3553V14.6724ZM17.5389 17.527L16.8811 17.524V17.527H17.5389ZM16.8811 18.8922C16.8811 19.2635 17.1756 19.5646 17.5389 19.5646C17.9022 19.5646 18.1966 19.2635 18.1966 18.8922H16.8811ZM23.6281 16.3815C23.159 14.9965 21.8719 14 20.3553 14V15.3449C21.2939 15.3449 22.0935 15.9612 22.3849 16.8215L23.6281 16.3815ZM20.3579 14C18.4462 13.9923 16.8895 15.5694 16.8811 17.524L18.1966 17.5299C18.2018 16.3182 19.1669 15.34 20.3526 15.3449L20.3579 14ZM16.8811 17.527V17.5396H18.1966V17.527H16.8811ZM16.8811 17.5396V18.8922H18.1966V17.5396H16.8811Z" fill="#006600"/>
<path d="M22.7037 25.6551H17.9947V27H22.7037V25.6551ZM17.9947 25.6551C17.0676 25.6551 16.3155 24.8866 16.3155 23.938H15C15 25.6291 16.3408 27 17.9947 27V25.6551ZM16.3155 23.938V21.2366H15V23.938H16.3155ZM16.3155 21.2366C16.3155 20.288 17.0676 19.5194 17.9947 19.5194V18.1746C16.3408 18.1746 15 19.5455 15 21.2366H16.3155ZM17.9947 19.5194H22.7037V18.1746H17.9947V19.5194ZM22.7037 19.5194C23.6308 19.5194 24.3828 20.288 24.3828 21.2366H25.6984C25.6984 19.5455 24.3575 18.1746 22.7037 18.1746V19.5194ZM24.3828 21.2366V23.938H25.6984V21.2366H24.3828ZM24.3828 23.938C24.3828 24.8866 23.6308 25.6551 22.7037 25.6551V27C24.3575 27 25.6984 25.6291 25.6984 23.938H24.3828Z" fill="#006600"/>
<path d="M20.6991 21.8877C20.6991 21.5164 20.4046 21.2153 20.0413 21.2153C19.678 21.2153 19.3835 21.5164 19.3835 21.8877H20.6991ZM19.3835 23.2876C19.3835 23.659 19.678 23.96 20.0413 23.96C20.4046 23.96 20.6991 23.659 20.6991 23.2876H19.3835ZM19.3835 21.8877V23.2876H20.6991V21.8877H19.3835Z" fill="#006600"/>
</svg>
