<svg width="40" height="40" viewBox="0 0 40 40" fill="none" xmlns="http://www.w3.org/2000/svg">
<rect width="40" height="40" rx="7" fill="#EDECFF"/>
<path d="M19.5 15.3448C22.3468 15.3448 24.6552 17.6527 24.6552 20.5H26C26 16.9099 23.0894 14 19.5 14V15.3448ZM24.6552 20.5C24.6552 23.3467 22.3467 25.6552 19.5 25.6552V27C23.0894 27 26 24.0894 26 20.5H24.6552ZM19.5 25.6552C16.6527 25.6552 14.3448 23.3468 14.3448 20.5H13C13 24.0894 15.9099 27 19.5 27V25.6552ZM14.3448 20.5C14.3448 17.6527 16.6527 15.3448 19.5 15.3448V14C15.9099 14 13 16.9099 13 20.5H14.3448Z" fill="#8982FF"/>
<path d="M19.8546 18.1089C19.8546 17.7376 19.5535 17.4365 19.1822 17.4365C18.8108 17.4365 18.5098 17.7376 18.5098 18.1089H19.8546ZM18.5098 20.8929C18.5098 21.2643 18.8108 21.5654 19.1822 21.5654C19.5535 21.5654 19.8546 21.2643 19.8546 20.8929H18.5098ZM18.5098 18.1089V20.8929H19.8546V18.1089H18.5098Z" fill="#8982FF"/>
<path d="M19.4092 21.9043C18.9141 21.9043 18.5127 22.3057 18.5127 22.8008C18.5127 23.296 18.9141 23.6974 19.4092 23.6974V21.9043ZM19.4155 23.6974C19.9107 23.6974 20.3121 23.296 20.3121 22.8008C20.3121 22.3057 19.9107 21.9043 19.4155 21.9043V23.6974ZM19.4092 23.6974H19.4155V21.9043H19.4092V23.6974Z" fill="#8982FF"/>
</svg>
