<svg width="16" height="15" viewBox="0 0 16 15" fill="none" xmlns="http://www.w3.org/2000/svg">
<path d="M9.04829 4.08575C9.04829 4.46231 9.35433 4.76756 9.73187 4.76756C10.1094 4.76756 10.4155 4.46231 10.4155 4.08575H9.04829ZM10.4155 10.915C10.4155 10.5385 10.1094 10.2332 9.73187 10.2332C9.35433 10.2332 9.04829 10.5385 9.04829 10.915H10.4155ZM10.4155 4.08575V3.39804H9.04829V4.08575H10.4155ZM10.4155 3.39804C10.4155 1.52148 8.89004 0 7.00866 0V1.36364C8.13499 1.36364 9.04829 2.27459 9.04829 3.39804H10.4155ZM7.00866 0H3.40604V1.36364H7.00866V0ZM3.40604 0C1.52527 0 0 1.5216 0 3.39804H1.36715C1.36715 2.27447 2.28056 1.36364 3.40604 1.36364V0ZM0 3.39804V11.602H1.36715V3.39804H0ZM0 11.602C0 13.4784 1.52527 15 3.40604 15V13.6364C2.28056 13.6364 1.36715 12.7255 1.36715 11.602H0ZM3.40604 15H7.01605V13.6364H3.40604V15ZM7.01605 15C8.89276 15 10.4155 13.4825 10.4155 11.6101H9.04829C9.04829 12.7288 8.13819 13.6364 7.01605 13.6364V15ZM10.4155 11.6101V10.915H9.04829V11.6101H10.4155Z" fill="white"/>
<path d="M14.7527 7.81384C15.1303 7.81384 15.4363 7.50857 15.4363 7.13201C15.4363 6.75546 15.1303 6.4502 14.7527 6.4502V7.81384ZM5.85447 6.4502C5.47694 6.4502 5.1709 6.75546 5.1709 7.13201C5.1709 7.50857 5.47694 7.81384 5.85447 7.81384V6.4502ZM14.7527 6.4502H5.85447V7.81384H14.7527V6.4502Z" fill="white"/>
<path d="M13.0702 4.86757C12.8026 4.6019 12.3698 4.60286 12.1034 4.86972C11.8371 5.13658 11.838 5.56828 12.1056 5.83395L13.0702 4.86757ZM14.7517 7.49941L15.234 7.98252C15.3628 7.85456 15.4352 7.68069 15.4352 7.49935C15.4352 7.31802 15.3628 7.14416 15.2339 7.01622L14.7517 7.49941ZM12.1055 9.16569C11.838 9.43141 11.8371 9.86311 12.1035 10.1299C12.3699 10.3967 12.8027 10.3976 13.0702 10.1319L12.1055 9.16569ZM12.1056 5.83395L14.2694 7.9826L15.2339 7.01622L13.0702 4.86757L12.1056 5.83395ZM14.2693 7.01631L12.1055 9.16569L13.0702 10.1319L15.234 7.98252L14.2693 7.01631Z" fill="white"/>
</svg>
