<svg width="20" height="20" viewBox="0 0 20 20" fill="none" xmlns="http://www.w3.org/2000/svg">
<mask id="mask0_109_24598" style="mask-type:luminance" maskUnits="userSpaceOnUse" x="0" y="-1" width="20" height="21">
<path d="M0 -0.428528H20V19.5715H0V-0.428528Z" fill="white"/>
</mask>
<g mask="url(#mask0_109_24598)">
<path d="M15.7144 12.4286L18.5715 11.7143L19.2858 14.5714" stroke="#006600" stroke-width="2" stroke-linecap="round" stroke-linejoin="round"/>
<path d="M18.5717 11.7143C17.9643 13.5291 16.8188 15.1162 15.2878 16.2644C13.7568 17.4127 11.9126 18.0679 10.0003 18.1429C8.24041 18.1432 6.52313 17.6019 5.08166 16.5923C3.64019 15.5827 2.54439 14.154 1.94312 12.5" stroke="#006600" stroke-width="2" stroke-linecap="round" stroke-linejoin="round"/>
<path d="M4.28578 6.7143L1.42864 7.42858L0.714355 4.57144" stroke="#006600" stroke-width="2" stroke-linecap="round" stroke-linejoin="round"/>
<path d="M1.42847 7.42857C2.06785 5.63361 3.22172 4.06673 4.74607 2.92346C6.27041 1.7802 8.09771 1.11121 9.9999 1C11.7683 1.00497 13.4919 1.5568 14.9343 2.57983C16.3769 3.60286 17.4676 5.047 18.057 6.71429" stroke="#006600" stroke-width="2" stroke-linecap="round" stroke-linejoin="round"/>
<path d="M10 4.57144V10.2857" stroke="#006600" stroke-width="2" stroke-linecap="round" stroke-linejoin="round"/>
<path d="M9.99993 14.5714C10.3944 14.5714 10.7142 14.2516 10.7142 13.8571C10.7142 13.4627 10.3944 13.1429 9.99993 13.1429C9.60544 13.1429 9.28564 13.4627 9.28564 13.8571C9.28564 14.2516 9.60544 14.5714 9.99993 14.5714Z" stroke="#006600" stroke-width="2" stroke-linecap="round" stroke-linejoin="round"/>
</g>
</svg>
