<svg width="40" height="40" viewBox="0 0 40 40" fill="none" xmlns="http://www.w3.org/2000/svg">
<rect width="40" height="40" rx="7" fill="#EDECFF"/>
<path d="M21.7771 14.6799L22.2664 14.2142C22.1385 14.0821 21.9618 14.0075 21.7771 14.0075V14.6799ZM17.5183 14.6799L17.5157 15.3523H17.5183V14.6799ZM15.0641 17.0464L14.386 17.0306C14.3859 17.0359 14.3858 17.0411 14.3858 17.0464H15.0641ZM15.0641 23.8452L15.7422 23.8599C15.7423 23.855 15.7423 23.8502 15.7423 23.8452H15.0641ZM17.4594 26.3273L17.4443 26.9996C17.4494 26.9997 17.4544 26.9998 17.4594 26.9998V26.3273ZM17.5183 26.3273V25.6549C17.511 25.6549 17.5037 25.655 17.4965 25.6552L17.5183 26.3273ZM22.6323 26.3273V26.9998C22.6415 26.9998 22.6506 26.9995 22.6598 26.9991L22.6323 26.3273ZM25.0193 23.8452H24.3411V23.8501L25.0193 23.8452ZM25.0193 18.0282H25.6976C25.6976 17.8546 25.6298 17.6878 25.5086 17.5625L25.0193 18.0282ZM21.7771 14.0075H17.5183V15.3523H21.7771V14.0075ZM17.5209 14.0075C15.8204 14.001 14.4261 15.3448 14.386 17.0306L15.7421 17.0623C15.7648 16.1092 16.5534 15.3486 17.5157 15.3523L17.5209 14.0075ZM14.3858 17.0464V23.8452H15.7423V17.0464H14.3858ZM14.386 23.8306C14.3484 25.5426 15.7173 26.9615 17.4443 26.9996L17.4745 25.655C16.4964 25.6335 15.7209 24.8298 15.7422 23.8599L14.386 23.8306ZM17.4594 26.9998C17.4661 26.9998 17.4658 26.9998 17.4833 26.9999C17.4961 27 17.5166 27.0001 17.5402 26.9994L17.4965 25.6552C17.5002 25.6551 17.5012 25.6552 17.4944 25.6551C17.4903 25.6551 17.4881 25.6551 17.4811 25.655C17.4755 25.6549 17.4679 25.6549 17.4594 25.6549V26.9998ZM17.5183 26.9998H22.6323V25.6549H17.5183V26.9998ZM22.6598 26.9991C24.3655 26.9306 25.7098 25.5334 25.6976 23.8405L24.3411 23.8501C24.3481 24.8176 23.5799 25.6162 22.6048 25.6555L22.6598 26.9991ZM25.6976 23.8452V18.0282H24.3411V23.8452H25.6976ZM25.5086 17.5625L22.2664 14.2142L21.2878 15.1456L24.53 18.4939L25.5086 17.5625Z" fill="#006600"/>
<path d="M22.2871 14.6724C22.2871 14.3011 21.9835 14 21.6089 14C21.2343 14 20.9307 14.3011 20.9307 14.6724H22.2871ZM23.2527 18.1527L23.2508 18.8252H23.2527V18.1527ZM25.0163 18.8252C25.3909 18.8252 25.6945 18.5241 25.6945 18.1527C25.6945 17.7814 25.3909 17.4803 25.0163 17.4803V18.8252ZM20.9307 14.6724V16.5186H22.2871V14.6724H20.9307ZM20.9307 16.5186C20.9307 17.7904 21.9681 18.8216 23.2508 18.8252L23.2546 17.4803C22.7194 17.4788 22.2871 17.049 22.2871 16.5186H20.9307ZM23.2527 18.8252H25.0163V17.4803H23.2527V18.8252Z" fill="#006600"/>
<path d="M21.4892 23.029C21.8637 23.029 22.1674 22.728 22.1674 22.3566C22.1674 21.9852 21.8637 21.6842 21.4892 21.6842V23.029ZM18.0325 21.6842C17.6579 21.6842 17.3542 21.9852 17.3542 22.3566C17.3542 22.728 17.6579 23.029 18.0325 23.029V21.6842ZM21.4892 21.6842H18.0325V23.029H21.4892V21.6842Z" fill="#006600"/>
<path d="M20.18 20.648C20.5546 20.648 20.8582 20.3469 20.8582 19.9756C20.8582 19.6042 20.5546 19.3032 20.18 19.3032V20.648ZM18.0318 19.3032C17.6572 19.3032 17.3535 19.6042 17.3535 19.9756C17.3535 20.3469 17.6572 20.648 18.0318 20.648V19.3032ZM20.18 19.3032H18.0318V20.648H20.18V19.3032Z" fill="#006600"/>
</svg>
