<svg width="24" height="23" viewBox="0 0 24 23" fill="none" xmlns="http://www.w3.org/2000/svg">
<path d="M20 13.0538C20.5523 13.0538 21 12.6061 21 12.0538C21 11.5015 20.5523 11.0538 20 11.0538V13.0538ZM6 11.0538C5.44771 11.0538 5 11.5015 5 12.0538C5 12.6061 5.44771 13.0538 6 13.0538V11.0538ZM20 11.0538H6V13.0538H20V11.0538Z" fill="#222326"/>
<path d="M12.3225 19.2375C12.7287 19.6117 13.3613 19.5857 13.7355 19.1795C14.1097 18.7733 14.0837 18.1407 13.6775 17.7665L12.3225 19.2375ZM6 12.0539L5.32248 11.3184C5.11694 11.5078 5 11.7745 5 12.0539C5 12.3334 5.11694 12.6001 5.32248 12.7895L6 12.0539ZM13.6775 6.34135C14.0837 5.96717 14.1097 5.33453 13.7355 4.92832C13.3613 4.52211 12.7287 4.49615 12.3225 4.87033L13.6775 6.34135ZM13.6775 17.7665L6.67752 11.3184L5.32248 12.7895L12.3225 19.2375L13.6775 17.7665ZM6.67752 12.7895L13.6775 6.34135L12.3225 4.87033L5.32248 11.3184L6.67752 12.7895Z" fill="#222326"/>
</svg>
