<svg width="13" height="13" viewBox="0 0 13 13" fill="none" xmlns="http://www.w3.org/2000/svg">
<path d="M11.6685 12.7718C11.9731 13.0764 12.467 13.0764 12.7716 12.7718C13.0762 12.4672 13.0762 11.9733 12.7716 11.6687L11.6685 12.7718ZM10.4837 9.38057C10.1791 9.07596 9.6852 9.07593 9.38057 9.38053C9.07596 9.68512 9.07593 10.179 9.38053 10.4836L10.4837 9.38057ZM10.3302 5.94511C10.3302 8.36695 8.36695 10.3302 5.94511 10.3302V11.8902C9.2285 11.8902 11.8902 9.2285 11.8902 5.94511H10.3302ZM5.94511 10.3302C3.52328 10.3302 1.56 8.36695 1.56 5.94511H0C0 9.2285 2.66171 11.8902 5.94511 11.8902V10.3302ZM1.56 5.94511C1.56 3.52328 3.52328 1.56 5.94511 1.56V0C2.66171 0 0 2.66171 0 5.94511H1.56ZM5.94511 1.56C8.36695 1.56 10.3302 3.52328 10.3302 5.94511H11.8902C11.8902 2.66171 9.2285 0 5.94511 0V1.56ZM12.7716 11.6687L10.4837 9.38057L9.38053 10.4836L11.6685 12.7718L12.7716 11.6687Z" fill="black"/>
</svg>
